<svg xmlns="http://www.w3.org/2000/svg" width="64" height="70.599" viewBox="0 0 64 70.599">
    <defs>
        <clipPath id="4lbd8oxcpa">
            <path data-name="사각형 1520" style="stroke:#000;fill:none;stroke-width:2px" d="M0 0h64v70.599H0z"/>
        </clipPath>
    </defs>
    <g data-name="그룹 733" style="clip-path:url(#4lbd8oxcpa)">
        <path data-name="패스 379" d="M143.484 192.744a6.5 6.5 0 1 1-6.478-6.522 6.5 6.5 0 0 1 6.478 6.522z" transform="translate(-104.484 -149.222)" style="stroke-linecap:round;stroke-linejoin:round;stroke:#000;fill:none;stroke-width:2px"/>
        <path data-name="패스 380" d="M94.616 290.807a1.748 1.748 0 0 1-1.716-1.794l.055-5.387a7.937 7.937 0 0 1 5.073-7.952c2.018-.738 4.753-.851 8.418-.838s6.39.145 8.4.9a7.952 7.952 0 0 1 5.025 8l.026 5.321a1.748 1.748 0 0 1-1.72 1.784z" transform="translate(-74.9 -221.239)" style="stroke-linecap:round;stroke-linejoin:round;stroke:#000;fill:none;stroke-width:2px"/>
        <path data-name="선 1" transform="translate(25 62.598)" style="stroke-linecap:round;stroke-linejoin:round;stroke:#000;fill:none;stroke-width:2px" d="M.017 7 0 0"/>
        <path data-name="선 2" transform="translate(39 62.598)" style="stroke-linecap:round;stroke-linejoin:round;stroke:#000;fill:none;stroke-width:2px" d="M.067 0 0 7"/>
        <path data-name="패스 381" d="M239.135 170.936a5.5 5.5 0 1 1-5.481-5.519 5.5 5.5 0 0 1 5.481 5.519z" transform="translate(-183.134 -132.417)" style="stroke-linecap:round;stroke-linejoin:round;stroke:#000;fill:none;stroke-width:2px"/>
        <path data-name="패스 382" d="M39.05 170.936a5.5 5.5 0 1 0 5.481-5.519 5.5 5.5 0 0 0-5.481 5.519z" transform="translate(-31.05 -132.903)" style="stroke-linecap:round;stroke-linejoin:round;stroke:#000;fill:none;stroke-width:2px"/>
        <path data-name="패스 383" d="M224.041 252.068c.913-.032 5.9-.039 6.988-.035a26.758 26.758 0 0 1 7.5.688 6.114 6.114 0 0 1 4.487 6.118l.025 5.382a1.831 1.831 0 0 1-1.86 1.812l-10.2-.014" transform="translate(-180.042 -202.433)" style="stroke-linecap:round;stroke-linejoin:round;stroke:#000;fill:none;stroke-width:2px"/>
        <path data-name="선 3" transform="translate(56 55.598)" style="stroke-linecap:round;stroke-linejoin:round;stroke:#000;fill:none;stroke-width:2px" d="M.054 0 0 8"/>
        <path data-name="패스 384" d="M23.462 252.068c-.913-.032-5.9-.039-6.988-.035a26.759 26.759 0 0 0-7.5.688 6.114 6.114 0 0 0-4.487 6.118l-.025 5.382a1.831 1.831 0 0 0 1.86 1.812l10.2-.014" transform="translate(-3.462 -202.433)" style="stroke-linecap:round;stroke-linejoin:round;stroke:#000;fill:none;stroke-width:2px"/>
        <path data-name="선 4" transform="translate(7 55.598)" style="stroke-linecap:round;stroke-linejoin:round;stroke:#000;fill:none;stroke-width:2px" d="m0 0 .054 8"/>
        <path data-name="패스 385" d="M146.886 56.758c-.6-1.565-2.13-2.695-4.595-2.695-3.173 0-4.981 1.788-4.981 4 0 2.07 1.767 3.3 5.159 4.015 3.332.7 4.759 1.871 4.759 4.021 0 2.263-1.96 3.965-4.959 3.965s-4.489-1.182-5.041-2.885" transform="translate(-110.228 -43.437)" style="stroke:#c31023;stroke-linecap:round;stroke-linejoin:round;fill:none;stroke-width:2px"/>
        <path data-name="선 5" transform="translate(32 26.877)" style="stroke:#c31023;stroke-linecap:round;stroke-linejoin:round;fill:none;stroke-width:2px" d="M0 0v2"/>
        <path data-name="선 6" transform="translate(32 8.001)" style="stroke:#c31023;stroke-linecap:round;stroke-linejoin:round;fill:none;stroke-width:2px" d="M0 0v2"/>
        <path data-name="패스 386" d="M96.124 31.462a21.5 21.5 0 1 0-41.5-.016" transform="translate(-42.877 -3.462)" style="stroke:#c31023;stroke-linecap:round;stroke-linejoin:round;fill:none;stroke-width:2px"/>
    </g>
</svg>
