<svg xmlns="http://www.w3.org/2000/svg" width="70" height="59.81" viewBox="0 0 70 59.81">
    <defs>
        <clipPath id="ai2nyztsda">
            <path data-name="사각형 1524" style="stroke:#000;fill:none;stroke-width:2px" d="M0 0h70v59.81H0z"/>
        </clipPath>
        <clipPath id="noab2kzhdb">
            <path data-name="사각형 1528" d="M0 0h16v21H0z"/>
        </clipPath>
    </defs>
    <g data-name="그룹 736" style="clip-path:url(#ai2nyztsda)">
        <path data-name="패스 421" d="M5 0h24a5 5 0 0 1 5 5v48a5 5 0 0 1-5 5H5a5 5 0 0 1-5-5V5a5 5 0 0 1 5-5z" transform="translate(17.95 .929)" style="stroke-linecap:round;stroke:#000;fill:none;stroke-width:2px"/>
        <path data-name="선 7" transform="translate(23 50)" style="stroke-linejoin:round;stroke:#000;fill:none;stroke-width:2px" d="M25 0H0"/>
        <path data-name="선 8" transform="translate(23 9.999)" style="stroke-linejoin:round;stroke:#000;fill:none;stroke-width:2px" d="M0 0h25"/>
        <path data-name="선 9" transform="translate(32 54)" style="stroke-linejoin:round;stroke-linecap:round;stroke:#000;fill:none;stroke-width:2px" d="M0 0h7"/>
        <path data-name="패스 400" d="M12.338 42.133a15.781 15.781 0 0 1 0-21" transform="translate(-.338 -1.133)" style="stroke:#c31023;stroke-linejoin:round;stroke-linecap:round;fill:none;stroke-width:2px"/>
        <path data-name="패스 401" d="M8 46.361a20.661 20.661 0 0 1 0-31" transform="translate(0 -1.362)" style="stroke:#c31023;stroke-linejoin:round;stroke-linecap:round;fill:none;stroke-width:2px"/>
        <path data-name="패스 402" d="M62.413 42.133a15.781 15.781 0 0 0 0-21" transform="translate(-4.414 -1.133)" style="stroke:#c31023;stroke-linejoin:round;stroke-linecap:round;fill:none;stroke-width:2px"/>
        <path data-name="패스 403" d="M67.36 46.361a23.021 23.021 0 0 0 0-31" transform="translate(-4.36 -1.362)" style="stroke:#c31023;stroke-linejoin:round;stroke-linecap:round;fill:none;stroke-width:2px"/>
        <path data-name="선 10" transform="translate(34 5.999)" style="stroke-linejoin:round;stroke-linecap:round;stroke:#000;fill:none;stroke-width:2px" d="M0 0h2"/>
    </g>
    <g data-name="그룹 743">
        <g data-name="그룹 742" style="clip-path:url(#noab2kzhdb)" transform="translate(27 20)">
            <path data-name="패스 419" d="M7.877 21.269a.783.783 0 0 1-.523-.2C7.053 20.8 0 14.457 0 7.877a7.877 7.877 0 0 1 15.755 0c0 6.58-7.055 12.923-7.355 13.193a.783.783 0 0 1-.523.2m0-19.694a6.309 6.309 0 0 0-6.3 6.3c0 4.9 4.7 9.944 6.3 11.518 1.6-1.573 6.3-6.62 6.3-11.518a6.309 6.309 0 0 0-6.3-6.3"/>
            <path data-name="패스 420" d="M7.878 11.816a3.939 3.939 0 1 1 3.939-3.939 3.943 3.943 0 0 1-3.939 3.939m0-6.3a2.363 2.363 0 1 0 2.361 2.362 2.366 2.366 0 0 0-2.361-2.364"/>
        </g>
    </g>
</svg>
