<svg xmlns="http://www.w3.org/2000/svg" width="64" height="73.143" viewBox="0 0 64 73.143">
    <defs>
        <clipPath id="p6c17b4i0a">
            <path data-name="사각형 1516" style="fill:none;stroke:#000" d="M0 0h64v73.143H0z"/>
        </clipPath>
        <clipPath id="jj2jzbresb">
            <path data-name="패스 361" d="M8 19z" transform="translate(-8 -19)" style="fill:none;stroke:#000"/>
        </clipPath>
    </defs>
    <g data-name="그룹 728">
        <g data-name="마스크 그룹 8" style="clip-path:url(#p6c17b4i0a)">
            <path data-name="패스 355" d="M52 41H31.135a4.063 4.063 0 0 1-3.893-2.831l-8.229-25.8a.539.539 0 0 0-.518-.369H15a1 1 0 0 1 0-2h3.495a2.533 2.533 0 0 1 2.423 1.762l8.23 25.8A2.07 2.07 0 0 0 31.135 39H52a1 1 0 0 1 0 2z" transform="translate(8 6)" style="fill:#c31023"/>
            <path data-name="패스 356" d="M28.741 33a.986.986 0 0 1-.146-1.961l16.694-2.519a1.968 1.968 0 0 0 1.593-1.62l2.136-11.28a.586.586 0 0 0-.118-.486.419.419 0 0 0-.325-.162h-25.59a.986.986 0 0 1 0-1.972h25.589a2.39 2.39 0 0 1 1.843.877 2.552 2.552 0 0 1 .536 2.111l-2.134 11.276a3.94 3.94 0 0 1-3.236 3.206L28.89 32.989a.993.993 0 0 1-.149.011z" transform="translate(12 7)" style="fill:#c31023"/>
            <path data-name="패스 357" d="M26.5 38.5A3.5 3.5 0 1 1 30 35a3.5 3.5 0 0 1-3.5 3.5zm0-5A1.5 1.5 0 1 0 28 35a1.5 1.5 0 0 0-1.5-1.5z" transform="translate(12 16.5)" style="fill:#c31023"/>
            <path data-name="패스 358" d="M38.5 38.5A3.5 3.5 0 1 1 42 35a3.5 3.5 0 0 1-3.5 3.5zm0-5A1.5 1.5 0 1 0 40 35a1.5 1.5 0 0 0-1.5-1.5z" transform="translate(20 16.5)" style="fill:#c31023"/>
            <path data-name="패스 376" d="M39 72H5a5.007 5.007 0 0 1-5-5V5a5.007 5.007 0 0 1 5-5h34a5.007 5.007 0 0 1 5 5v10h-2V5a3 3 0 0 0-3-3H5a3 3 0 0 0-3 3v62a3 3 0 0 0 3 3h34a3 3 0 0 0 3-3v-9h2v9a5.007 5.007 0 0 1-5 5z"/>
            <path data-name="선 48" d="M26 63h-7a1 1 0 0 1-1-1 1 1 0 0 1 1-1h7a1 1 0 0 1 1 1 1 1 0 0 1-1 1z"/>
            <path data-name="선 49" d="M22 45H10a1 1 0 0 1-1-1 1 1 0 0 1 1-1h12a1 1 0 0 1 1 1 1 1 0 0 1-1 1z"/>
            <path data-name="선 50" d="M25 37H15a1 1 0 0 1-1-1 1 1 0 0 1 1-1h10a1 1 0 0 1 1 1 1 1 0 0 1-1 1z"/>
            <path data-name="패스 364" d="M0 0h2v6H0z" transform="translate(40 27)" style="fill:#b32a2c"/>
            <path data-name="패스 363" d="M0 0h2v6H0z" transform="translate(46 27)" style="fill:#b32a2c"/>
            <path data-name="패스 362" d="M0 0h2v6H0z" transform="translate(52 27)" style="fill:#b32a2c"/>
        </g>
    </g>
    <g data-name="그룹 730">
        <g data-name="그룹 729" style="clip-path:url(#jj2jzbresb)" transform="translate(12.889 28.952)">
            <path data-name="패스 360" d="M8 19z" transform="translate(-8 -19)" style="fill:#fff"/>
            <path data-name="패스 360 - 윤곽선" d="M0-.5h6v1H0z"/>
        </g>
    </g>
    <g data-name="그룹 732">
        <g data-name="그룹 731" style="clip-path:url(#p6c17b4i0a)">
            <path data-name="선 51" d="M9 1H0a1 1 0 0 1-1-1 1 1 0 0 1 1-1h9a1 1 0 0 1 1 1 1 1 0 0 1-1 1z" transform="translate(12 28.999)" style="fill:#050404"/>
        </g>
    </g>
</svg>
