<svg xmlns="http://www.w3.org/2000/svg" width="54" height="54" viewBox="0 0 54 54">
    <defs>
        <clipPath id="4n7wunbqca">
            <path data-name="사각형 1492" transform="translate(521 280)" style="fill:#c3c3c3" d="M0 0h54v54H0z"/>
        </clipPath>
    </defs>
    <g data-name="그룹 689" transform="translate(-521 -280)" style="clip-path:url(#4n7wunbqca)">
        <path data-name="패스 296" d="M551.415 329.728h-6.833a.854.854 0 1 1 0-1.708h6.833a.854.854 0 0 1 0 1.708z"/>
        <path data-name="패스 297" d="M570.745 334.001h-45.49a4.387 4.387 0 0 1-4.255-4.5v-1.2a3.215 3.215 0 0 1 3.118-3.3H541.6a.894.894 0 0 1 0 1.784h-17.482a1.475 1.475 0 0 0-1.431 1.513v1.2a2.647 2.647 0 0 0 2.568 2.715h45.49a2.647 2.647 0 0 0 2.568-2.715v-1.2a1.475 1.475 0 0 0-1.43-1.513H554.4a.894.894 0 0 1 0-1.784h17.485a3.215 3.215 0 0 1 3.118 3.3v1.2a4.387 4.387 0 0 1-4.258 4.5z"/>
        <path data-name="선 27" d="M571 322a.925.925 0 0 1-1-.825v-13.35a.925.925 0 0 1 1-.825.925.925 0 0 1 1 .825v13.35a.925.925 0 0 1-1 .825z"/>
        <path data-name="패스 298" d="M524.849 322.001a.847.847 0 0 1-.849-.844v-23.9a4.276 4.276 0 0 1 4.283-4.256h6.867a.845.845 0 1 1 0 1.689h-6.867a2.58 2.58 0 0 0-2.585 2.569v23.9a.847.847 0 0 1-.849.842z"/>
        <path data-name="패스 299" d="M546.255 280H571.4a5.422 5.422 0 0 1 5.429 5.4v13.647a5.422 5.422 0 0 1-5.429 5.4h-12.076a.284.284 0 0 0-.214.1l-3.67 4.163a.86.86 0 0 1-1.317-.034l-3.265-4.116a.286.286 0 0 0-.225-.108h-4.378a5.422 5.422 0 0 1-5.429-5.4V285.4a5.422 5.422 0 0 1 5.429-5.4zm25.145 22.746a3.71 3.71 0 0 0 3.715-3.7V285.4a3.71 3.71 0 0 0-3.715-3.7h-25.145a3.71 3.71 0 0 0-3.715 3.7v13.647a3.71 3.71 0 0 0 3.715 3.7h4.378a2 2 0 0 1 1.569.756l2.628 3.313 2.99-3.391a2 2 0 0 1 1.5-.678z" transform="translate(-2.826)" style="fill:#c31023"/>
        <path data-name="선 28" d="M15.15 1H-.15A.934.934 0 0 1-1 0a.934.934 0 0 1 .85-1h15.3A.934.934 0 0 1 16 0a.934.934 0 0 1-.85 1z" transform="translate(548 288)" style="fill:#c31023"/>
        <path data-name="타원 3" d="M536 306a4 4 0 1 1-4 4 4 4 0 0 1 4-4zm0 6.4a2.4 2.4 0 1 0-2.4-2.4 2.4 2.4 0 0 0 2.4 2.4z"/>
        <path data-name="선 30" d="M540.167 320h-8.334a.928.928 0 0 1-.833-1 .928.928 0 0 1 .833-1h8.334a.928.928 0 0 1 .833 1 .928.928 0 0 1-.833 1z"/>
        <path data-name="선 31" d="M10.143 1H-.143A.937.937 0 0 1-1 0a.937.937 0 0 1 .857-1h10.286A.937.937 0 0 1 11 0a.937.937 0 0 1-.857 1z" transform="translate(549 294)" style="fill:#c31023"/>
    </g>
</svg>
