<svg xmlns="http://www.w3.org/2000/svg" width="64" height="67.367" viewBox="0 0 64 67.367">
    <defs>
        <clipPath id="lwc6zdwk8a">
            <path data-name="사각형 1518" style="fill:none" d="M0 0h64v67.367H0z"/>
        </clipPath>
    </defs>
    <g data-name="마스크 그룹 7" style="clip-path:url(#lwc6zdwk8a)">
        <path data-name="사각형 1519 - 윤곽선" d="M5 2a3 3 0 0 0-3 3v42a3 3 0 0 0 3 3h34a3 3 0 0 0 3-3V5a3 3 0 0 0-3-3H5m0-2h34a5 5 0 0 1 5 5v42a5 5 0 0 1-5 5H5a5 5 0 0 1-5-5V5a5 5 0 0 1 5-5z"/>
        <path data-name="패스 367" d="M12.317 17.312a1 1 0 0 1-.817-.412l-3.009-4.261a.938.938 0 0 1 .256-1.329 1.007 1.007 0 0 1 1.371.248l2.2 3.107 4.2-5.938a1.008 1.008 0 0 1 1.371-.248.936.936 0 0 1 .256 1.329L13.131 16.9a1 1 0 0 1-.814.416" transform="translate(-.317 -.313)" style="fill:#c31023"/>
        <path data-name="패스 368" d="M34.869 14.019H23.831a1 1 0 0 1 0-2h11.038a1 1 0 0 1 0 2" transform="translate(-.85 -.02)" style="fill:#c31023"/>
        <path data-name="패스 369" d="M12.317 44.144a1 1 0 0 1-.814-.416l-3.012-4.259a.938.938 0 0 1 .256-1.329 1.007 1.007 0 0 1 1.371.248l2.2 3.108 4.2-5.937a1.007 1.007 0 0 1 1.371-.248.936.936 0 0 1 .256 1.329l-5.013 7.088a1 1 0 0 1-.814.416" transform="translate(-.317 -1.143)" style="fill:#c31023"/>
        <path data-name="패스 370" d="M12.317 30.729a1 1 0 0 1-.814-.416l-3.012-4.258a.938.938 0 0 1 .256-1.329 1.006 1.006 0 0 1 1.371.248l2.2 3.108 4.2-5.937a1.006 1.006 0 0 1 1.371-.248.936.936 0 0 1 .256 1.329l-5.013 7.087a1 1 0 0 1-.814.416" transform="translate(-.317 -.729)" style="fill:#c31023"/>
        <path data-name="패스 371" d="M34.869 27.434H23.831a1 1 0 0 1 0-2h11.038a1 1 0 0 1 0 2" transform="translate(-.85 -.434)" style="fill:#c31023"/>
        <path data-name="패스 372" d="M47.034 28.188a.841.841 0 0 0-.79-.65h-5.29a.841.841 0 0 0-.79.65l-.964 4.566a1.478 1.478 0 0 1-.735.938l-2.924 1.687a1.489 1.489 0 0 1-1.182.167l-4.442-1.438a.844.844 0 0 0-.959.361l-2.633 4.565a.841.841 0 0 0 .166 1.01l3.466 3.126a1.483 1.483 0 0 1 .444 1.108v3.376a1.483 1.483 0 0 1-.445 1.107l-3.467 3.122a.842.842 0 0 0-.167 1.011l2.637 4.57a.842.842 0 0 0 .959.361l4.439-1.442a1.49 1.49 0 0 1 1.181.168l2.925 1.684a1.483 1.483 0 0 1 .735.938l.966 4.568a.842.842 0 0 0 .79.65h5.29a.841.841 0 0 0 .79-.65L48 59.177a1.482 1.482 0 0 1 .736-.938l2.924-1.686a1.5 1.5 0 0 1 1.181-.168l4.442 1.439a.843.843 0 0 0 .959-.361l2.633-4.563a.843.843 0 0 0-.167-1.01l-3.466-3.126a1.481 1.481 0 0 1-.444-1.107v-3.379a1.486 1.486 0 0 1 .444-1.107l3.468-3.122a.843.843 0 0 0 .167-1.01l-2.638-4.573a.841.841 0 0 0-.958-.361l-4.44 1.443a1.486 1.486 0 0 1-1.181-.167l-2.924-1.687a1.48 1.48 0 0 1-.736-.94z" transform="translate(-.853 -.895)" style="fill:#fff"/>
        <path data-name="패스 373" d="M40.825 68.132a4.685 4.685 0 0 1-4.59-3.777l-.72-3.4-1.162-.67-3.372 1.094a4.667 4.667 0 0 1-5.506-2.108L22.839 54.7a4.686 4.686 0 0 1 .969-5.855l2.592-2.338v-1.345l-2.632-2.373a4.677 4.677 0 0 1-.926-5.821l2.632-4.562a4.686 4.686 0 0 1 5.559-2.09l3.319 1.074 1.164-.67.731-3.462a4.671 4.671 0 0 1 4.571-3.719h5.3a4.686 4.686 0 0 1 4.579 3.734l.73 3.449 1.161.67 3.372-1.1a4.672 4.672 0 0 1 5.5 2.1l2.64 4.583a4.687 4.687 0 0 1-.972 5.857l-2.589 2.333v1.345l2.631 2.373a4.675 4.675 0 0 1 .93 5.817l-2.634 4.566a4.687 4.687 0 0 1-5.554 2.092l-3.325-1.076-1.162.67-.731 3.46a4.675 4.675 0 0 1-4.577 3.719zm2.3-5.354-.017.081zm.674-.059.02.092-.02-.092M40.18 54.7a5.361 5.361 0 0 1 2.686 3.6l.442 2.092h.323l.453-2.144a5.335 5.335 0 0 1 2.676-3.54l2.753-1.588a5.366 5.366 0 0 1 4.448-.528l2.039.66.157-.272-1.634-1.474a5.327 5.327 0 0 1-1.723-4.081v-3.176a5.357 5.357 0 0 1 1.765-4.12l1.593-1.435-.158-.276-2.091.68a5.329 5.329 0 0 1-4.4-.546l-2.754-1.588a5.368 5.368 0 0 1-2.683-3.591l-.444-2.1h-.322l-.454 2.147a5.325 5.325 0 0 1-2.674 3.539l-2.752 1.587a5.361 5.361 0 0 1-4.454.527l-2.032-.653-.157.272 1.634 1.474a5.333 5.333 0 0 1 1.722 4.079v3.178a5.356 5.356 0 0 1-1.769 4.121l-1.59 1.432.159.276 2.091-.679a5.337 5.337 0 0 1 4.394.546zm11.34 5.233.086.027zm-16.047-.019-.087.027.087-.027m-.192-.073.018.086zm16.386-.041-.018.086a1.19 1.19 0 0 0 .018-.086M57.962 54.61q.03.03.064.058zm-28.949-.036-.064.057.064-.057M28.632 54l-.1.033zm29.632-.016.081.027-.081-.027m-31.06-8.1.072.064zm32.56-.026-.063.056.063-.056m-32.529-.106-.067.059zm32.426-.035.072.065c-.023-.022-.046-.044-.072-.065M28.594 37.661c.029.011.059.02.089.029zm29.806-.024-.09.03.09-.03m-.41-.6-.068.061zM28.911 37l.065.058-.065-.058M35.291 31.779c-.007.033-.015.066-.021.1zm16.35-.041.016.08c0-.027-.011-.054-.016-.08m-.086-.016-.095.031zM35.326 31.7l.093.03a1.673 1.673 0 0 0-.093-.03m8.506-2.9-.02.1q.012-.048.02-.1" transform="translate(-.722 -.766)" style="fill:#fff"/>
        <path data-name="패스 374" d="M39.832 65.001a1.813 1.813 0 0 1-1.752-1.438l-.972-4.578a.6.6 0 0 0-.2-.265l-3.028-1.732a.628.628 0 0 0-.4-.09l-4.485 1.452a1.811 1.811 0 0 1-2.112-.8l-2.66-4.6a1.806 1.806 0 0 1 .372-2.233l3.485-3.13a.59.59 0 0 0 .13-.309v-3.476a.614.614 0 0 0-.119-.384l-3.5-3.149a1.8 1.8 0 0 1-.359-2.226l2.654-4.589a1.819 1.819 0 0 1 2.126-.8L33.48 34.1a.608.608 0 0 0 .336-.044l3.016-1.738a.625.625 0 0 0 .273-.292l.976-4.6a1.81 1.81 0 0 1 1.75-1.425h5.335a1.813 1.813 0 0 1 1.752 1.43l.975 4.586a.58.58 0 0 0 .2.266l3.018 1.733a.632.632 0 0 0 .393.089l4.486-1.453a1.813 1.813 0 0 1 2.112.8l2.66 4.6a1.807 1.807 0 0 1-.371 2.233l-3.488 3.131a.594.594 0 0 0-.123.307V47.2a.624.624 0 0 0 .119.384l3.5 3.149a1.806 1.806 0 0 1 .361 2.225l-2.655 4.589a1.817 1.817 0 0 1-2.125.8l-4.461-1.444a.613.613 0 0 0-.337.044l-3.015 1.737a.62.62 0 0 0-.273.295l-.975 4.6a1.813 1.813 0 0 1-1.752 1.425zm5.177-1.827v.01zm-5.022-.011v.01-.01m-6.432-8.217a2.48 2.48 0 0 1 1.376.4l2.875 1.648a2.427 2.427 0 0 1 1.213 1.6l.946 4.46h5.069l.948-4.471a2.464 2.464 0 0 1 1.287-1.62l2.871-1.656a2.451 2.451 0 0 1 1.993-.247l4.347 1.403 2.525-4.364-3.407-3.062a2.466 2.466 0 0 1-.766-1.922v-3.308a2.422 2.422 0 0 1 .781-1.844l3.4-3.051-2.533-4.373-4.36 1.412a2.486 2.486 0 0 1-2.052-.3l-2.876-1.65a2.431 2.431 0 0 1-1.212-1.6l-.947-4.46h-5.068l-.948 4.473a2.466 2.466 0 0 1-1.286 1.624l-2.872 1.656a2.439 2.439 0 0 1-2 .247l-4.35-1.4-2.519 4.364 3.406 3.058a2.464 2.464 0 0 1 .766 1.921v3.309a2.426 2.426 0 0 1-.782 1.845l-3.4 3.05 2.536 4.375 4.364-1.412a2.123 2.123 0 0 1 .677-.1M28.4 56.5h-.013zm28.19 0h.009zm2.509-4.316.009.007zm-33.193-.021-.007.007.007-.007m33.195-13.334-.007.007zm-33.21-.012.009.007-.009-.007m2.51-4.312h.009zm28.21-.008H56.6h.011m-16.618-6.683v.013-.013"/>
        <path data-name="패스 375" d="M42.5 53a7.5 7.5 0 1 1 0-15 .984.984 0 0 1 0 1.968 5.532 5.532 0 1 0 5.532 5.532.984.984 0 1 1 1.968 0 7.509 7.509 0 0 1-7.5 7.5"/>
    </g>
</svg>
