<svg xmlns="http://www.w3.org/2000/svg" width="80" height="83.673" viewBox="0 0 80 83.673">
    <defs>
        <clipPath id="euh3ly2e3a">
            <path data-name="사각형 1533" style="fill:#fff;stroke:#fff;stroke-width:.5px" d="M0 0h80v83.673H0z"/>
        </clipPath>
    </defs>
    <g data-name="그룹 748" style="clip-path:url(#euh3ly2e3a)">
        <path data-name="패스 456" d="M17.117 71a2.529 2.529 0 0 1-1.793-.742L7.6 62.531a2.535 2.535 0 0 1-.006-3.58l5.17-5.228-2.781-6.69-7.37.037h-.036a2.519 2.519 0 0 1-2.514-2.524L0 33.434a2.5 2.5 0 0 1 .723-1.793 2.519 2.519 0 0 1 1.8-.759l7.342-.032 2.772-6.7L7.4 18.969a2.539 2.539 0 0 1-.009-3.6l7.984-7.978a2.527 2.527 0 0 1 3.588.008l5.181 5.229 6.706-2.767.032-7.34A2.527 2.527 0 0 1 33.407 0h.031l11.113.058a2.543 2.543 0 0 1 2.526 2.552l-.037 7.364 6.69 2.786 5.231-5.173a2.531 2.531 0 0 1 3.57.008l7.728 7.728a2.53 2.53 0 0 1 .006 3.573l-2.55 2.578a.854.854 0 1 1-1.215-1.2l2.553-2.582a.82.82 0 0 0 0-1.159l-7.731-7.728a.819.819 0 0 0-1.156 0l-5.639 5.576a.856.856 0 0 1-.93.182l-7.744-3.225a.856.856 0 0 1-.526-.794l.04-7.938a.831.831 0 0 0-.827-.834l-11.116-.061a.755.755 0 0 0-.587.233.823.823 0 0 0-.246.587l-.035 7.909a.854.854 0 0 1-.529.786l-7.761 3.2a.855.855 0 0 1-.933-.189L17.749 8.6a.836.836 0 0 0-1.162 0L8.6 16.578a.823.823 0 0 0-.243.587.834.834 0 0 0 .248.592l5.638 5.576a.854.854 0 0 1 .189.934l-3.209 7.761a.854.854 0 0 1-.786.528l-7.91.035a.823.823 0 0 0-.584.248.809.809 0 0 0-.234.58l.063 11.123a.815.815 0 0 0 .242.587.8.8 0 0 0 .569.232h.01l7.95-.04a.855.855 0 0 1 .789.526l3.22 7.744a.855.855 0 0 1-.181.929L8.8 60.157a.824.824 0 0 0 0 1.165l7.727 7.728a.818.818 0 0 0 1.156.006l3.776-3.731a.855.855 0 1 1 1.2 1.217l-3.773 3.727a2.5 2.5 0 0 1-1.769.731" transform="translate(0 -.001)" style="fill:#fff;stroke:#fff;stroke-width:.5px"/>
        <path data-name="패스 457" d="M88.173 110.474a.9.9 0 0 1-.235-.032 19.36 19.36 0 0 1-1.571-.522 18.384 18.384 0 0 1-6.442-4.192 18.225 18.225 0 0 1-.125-25.952 18.729 18.729 0 0 1 23.251-2.284.844.844 0 0 1 .242 1.176.863.863 0 0 1-1.188.24 17 17 0 0 0-21.092 2.069 16.539 16.539 0 0 0 .125 23.55 16.689 16.689 0 0 0 5.847 3.809c.489.186.969.346 1.422.473a.848.848 0 0 1-.234 1.666" transform="translate(-53.435 -53.473)" style="fill:#fff;stroke:#fff;stroke-width:.5px"/>
        <path data-name="패스 458" d="M131.131 244.183h-23.376a.86.86 0 0 1-.743-.424l-10.719-18.281a2.154 2.154 0 0 1 0-2.2 2.192 2.192 0 0 1 1.917-1.1h20.246a2.223 2.223 0 0 1 1.913 1.091l11.51 19.63a.846.846 0 0 1 0 .853.86.86 0 0 1-.744.427m-22.882-1.7h21.388l-10.759-18.35a.5.5 0 0 0-.427-.244h-20.25a.484.484 0 0 0-.428.246.476.476 0 0 0 0 .49z" transform="translate(-68.99 -161.184)" style="fill:#fff;stroke:#fff;stroke-width:.5px"/>
        <path data-name="패스 459" d="M231.283 298.327h-10.262a1.01 1.01 0 0 1 0-2h10.263a1.01 1.01 0 0 1 0 2" transform="translate(-159.152 -215.326)" style="fill:#fff;stroke:#fff;stroke-width:.5px"/>
        <path data-name="패스 460" d="M178.618 199.913h-9.136a.863.863 0 1 1 0-1.726h9.136a5.2 5.2 0 0 0 5.207-5.19v-11.044a8.336 8.336 0 0 0-8.339-8.313h-19.923a8.363 8.363 0 0 0-8.281 7.345.866.866 0 0 1-1.721-.2 10.094 10.094 0 0 1 10-8.871h19.922a10.067 10.067 0 0 1 10.071 10.04V193a6.935 6.935 0 0 1-6.938 6.916" transform="translate(-105.556 -123.912)" style="fill:#fff;stroke:#fff;stroke-width:.5px"/>
        <path data-name="패스 461" d="M222.851 224.7h-9.3a.894.894 0 0 1 0-1.786H222v-4.32a.851.851 0 1 1 1.7 0v5.214a.872.872 0 0 1-.85.893" transform="translate(-153.701 -157.699)" style="fill:#fff;stroke:#fff;stroke-width:.5px"/>
        <path data-name="패스 462" d="M192.279 105.081a9.5 9.5 0 1 1 9.5-9.5 9.511 9.511 0 0 1-9.5 9.5m0-17.287a7.787 7.787 0 1 0 7.787 7.788 7.8 7.8 0 0 0-7.787-7.788" transform="translate(-131.779 -62.079)" style="fill:#fff;stroke:#fff;stroke-width:.5px"/>
    </g>
</svg>
