<svg xmlns="http://www.w3.org/2000/svg" width="64" height="68.924" viewBox="0 0 64 68.924">
    <defs>
        <clipPath id="yerecz0sra">
            <path data-name="사각형 1512" style="fill:none" d="M0 0h64v68.924H0z"/>
        </clipPath>
    </defs>
    <g data-name="마스크 그룹 9" style="clip-path:url(#yerecz0sra)">
        <path data-name="패스 378" d="M36.342 69H4.66a4.733 4.733 0 0 1-4.659-4.793V4.791A4.733 4.733 0 0 1 4.66 0h31.682a4.732 4.732 0 0 1 4.659 4.791v7.584H39.14V4.791a2.84 2.84 0 0 0-2.8-2.877H4.658a2.84 2.84 0 0 0-2.8 2.877v59.416a2.839 2.839 0 0 0 2.8 2.873H36.34a2.839 2.839 0 0 0 2.8-2.873V48.582H41v15.625A4.733 4.733 0 0 1 36.342 69z"/>
        <path data-name="패스 377" d="M5 58h30v2H5z"/>
        <path data-name="패스 330" d="M21.007 7.069h-2.014a1.035 1.035 0 0 1 0-2.069h2.014a1.035 1.035 0 0 1 0 2.069"/>
        <path data-name="패스 331" d="M32.789 11.108a.929.929 0 0 0-1.124-.187l-5.094 2.968a.948.948 0 0 0-.4 1.075l1.955 5.284a1.625 1.625 0 0 1-.181 1.285l-1.822 3.183a1.609 1.609 0 0 1-1.013.8l-5.515.95a.942.942 0 0 0-.722.888v5.912a.943.943 0 0 0 .724.887l5.513.944a1.6 1.6 0 0 1 1.013.8l1.824 3.18a1.626 1.626 0 0 1 .182 1.285l-1.946 5.288a.949.949 0 0 0 .4 1.075l5.085 2.96A.93.93 0 0 0 32.8 49.5l3.565-4.347a1.6 1.6 0 0 1 1.194-.485h3.642a1.591 1.591 0 0 1 1.194.483L45.96 49.5a.93.93 0 0 0 1.124.188l5.094-2.971a.948.948 0 0 0 .4-1.075l-1.954-5.283a1.625 1.625 0 0 1 .181-1.285l1.822-3.181a1.606 1.606 0 0 1 1.013-.8l5.515-.95a.943.943 0 0 0 .722-.888v-5.912a.943.943 0 0 0-.724-.887l-5.513-.944a1.6 1.6 0 0 1-1.013-.8L50.8 21.525a1.637 1.637 0 0 1-.182-1.286l1.946-5.288a.948.948 0 0 0-.4-1.075l-5.087-2.961a.928.928 0 0 0-1.123.188l-3.565 4.348a1.594 1.594 0 0 1-1.194.485h-3.642a1.594 1.594 0 0 1-1.2-.485z" transform="translate(.125 .197)" style="fill:#fff"/>
        <path data-name="패스 332" d="M32.1 52.812a3.841 3.841 0 0 1-1.936-.515L25.1 49.349a4.064 4.064 0 0 1-1.769-4.742l1.681-4.569L23.839 38l-4.686-.8a4.061 4.061 0 0 1-3.274-3.924v-5.89a4.042 4.042 0 0 1 3.19-3.917l4.77-.822L25 20.6l-1.661-4.483a4.083 4.083 0 0 1 1.734-4.824l5.08-2.958a3.994 3.994 0 0 1 4.963.832l.052.061 3.03 3.691h2.335l3.03-3.694a4.018 4.018 0 0 1 5.014-.894l5.07 2.949a4.065 4.065 0 0 1 1.768 4.745l-1.682 4.567 1.171 2.042 4.688.8a4.062 4.062 0 0 1 3.273 3.929l.005 5.885a4.047 4.047 0 0 1-3.185 3.917l-4.776.822-1.169 2.041 1.661 4.481a4.081 4.081 0 0 1-1.738 4.826l-5.075 2.957a4 4 0 0 1-4.961-.827l-3.083-3.756h-2.337L35.182 51.4a4.082 4.082 0 0 1-3.082 1.412m-2.351-7.891 1.89 1.1 2.369-2.886a4.632 4.632 0 0 1 3.637-1.6l3.454-.005a4.589 4.589 0 0 1 3.592 1.537l2.42 2.949 1.9-1.1-1.3-3.5a4.731 4.731 0 0 1 .442-3.982l1.727-3.016a4.644 4.644 0 0 1 3.111-2.359l3.748-.646v-2.2l-3.666-.626a4.676 4.676 0 0 1-3.2-2.377l-1.723-3.018a4.692 4.692 0 0 1-.473-3.9L49 15.7l-1.892-1.1-2.368 2.886a4.672 4.672 0 0 1-3.638 1.6h-3.457a4.635 4.635 0 0 1-3.587-1.538l-2.423-2.938-1.9 1.1 1.3 3.505a4.738 4.738 0 0 1-.442 3.982l-1.727 3.014a4.64 4.64 0 0 1-3.114 2.362l-3.745.646v2.194l3.666.626a4.682 4.682 0 0 1 3.2 2.378l1.727 3.016a4.7 4.7 0 0 1 .475 3.9zm20.851-.937zm6.138-16.621z" transform="translate(.125 .188)" style="fill:#fff"/>
        <path data-name="패스 333" d="M32.114 50.8a1.863 1.863 0 0 1-.941-.252L26.094 47.6a1.97 1.97 0 0 1-.858-2.3l1.953-5.3a.772.772 0 0 0-.062-.334l-1.868-3.249a.689.689 0 0 0-.33-.306l-5.474-.936a1.967 1.967 0 0 1-1.576-1.9v-5.9a1.96 1.96 0 0 1 1.546-1.9l5.535-.954a.734.734 0 0 0 .258-.223l1.858-3.252a.7.7 0 0 0 .1-.437l-1.942-5.245a1.978 1.978 0 0 1 .846-2.328l5.089-2.964a1.935 1.935 0 0 1 2.405.4l.017.021 3.56 4.338a.59.59 0 0 0 .32.114l3.721-.006a.731.731 0 0 0 .425-.134l3.541-4.317a1.948 1.948 0 0 1 2.424-.424l5.081 2.956a1.972 1.972 0 0 1 .856 2.3l-1.953 5.3a.765.765 0 0 0 .062.333l1.868 3.25a.693.693 0 0 0 .327.3l5.477.936a1.967 1.967 0 0 1 1.575 1.9l.005 5.9a1.963 1.963 0 0 1-1.545 1.9l-5.536.954a.749.749 0 0 0-.259.224l-1.857 3.251a.691.691 0 0 0-.1.436l1.94 5.245a1.976 1.976 0 0 1-.846 2.328l-5.087 2.965a1.938 1.938 0 0 1-2.405-.4l-3.585-4.36c-.039-.036-.238-.145-.317-.113l-3.725.009a.854.854 0 0 0-.426.134L33.6 50.128a1.968 1.968 0 0 1-1.482.675m-4.9-4.94 4.882 2.845 3.476-4.236a2.6 2.6 0 0 1 2.07-.854l3.549-.009a2.558 2.558 0 0 1 1.965.835l3.496 4.256 4.9-2.855L49.65 40.7a2.674 2.674 0 0 1 .3-2.237l1.769-3.1a2.6 2.6 0 0 1 1.7-1.3l5.405-.93-.005-5.685-5.377-.92a2.637 2.637 0 0 1-1.769-1.382l-1.78-3.1a2.626 2.626 0 0 1-.264-2.133l1.908-5.18-4.891-2.833-3.475 4.237a2.653 2.653 0 0 1-2.07.856L37.553 17a2.551 2.551 0 0 1-1.966-.837L32.093 11.9l-4.9 2.854L29.1 19.9a2.673 2.673 0 0 1-.3 2.237l-1.77 3.1a2.592 2.592 0 0 1-1.7 1.3l-5.405.931v5.684l5.378.92a2.646 2.646 0 0 1 1.769 1.384l1.779 3.093a2.623 2.623 0 0 1 .265 2.131z" transform="translate(.125 .197)" style="fill:#c31023"/>
        <path data-name="패스 334" d="M38.964 37.255a7.5 7.5 0 1 1 0-15 1.012 1.012 0 0 1 0 2.025 5.475 5.475 0 1 0 5.475 5.475 1.012 1.012 0 1 1 2.025 0 7.508 7.508 0 0 1-7.5 7.5" transform="translate(.536 .744)" style="fill:#c31023"/>
    </g>
</svg>
