<svg xmlns="http://www.w3.org/2000/svg" width="80" height="82" viewBox="0 0 80 82">
    <defs>
        <clipPath id="uzddmh9vda">
            <path data-name="사각형 1534" transform="translate(0 -1)" style="fill:#fff;stroke:#fff;stroke-width:.5px" d="M0 0h80v82H0z"/>
        </clipPath>
    </defs>
    <g data-name="그룹 749" style="clip-path:url(#uzddmh9vda)" transform="translate(0 1)">
        <path data-name="패스 463" d="M174.946 118.339H152.03a.866.866 0 0 1-.681-.333.88.88 0 0 1-.163-.746l4.349-18.251a.87.87 0 0 1 .844-.67h22.916a.866.866 0 0 1 .681.333.88.88 0 0 1 .163.746l-4.349 18.251a.87.87 0 0 1-.844.67m-21.814-1.749h21.13l3.932-16.5h-21.13z" transform="translate(-109.162 -71.34)" style="fill:#fff;stroke:#fff;stroke-width:.5px"/>
        <path data-name="패스 464" d="M123.954 165.255H112.73a1.007 1.007 0 0 1 0-2h11.224a1.007 1.007 0 0 1 0 2" transform="translate(-80.842 -118.255)" style="fill:#fff;stroke:#fff;stroke-width:.5px"/>
        <path data-name="패스 465" d="M50.794 111.346a.85.85 0 0 1-.844-.855V99.406a10.011 10.011 0 0 1 9.939-10.06h10.988a9.767 9.767 0 0 1 4.623 1.167.859.859 0 0 1 .348 1.156.838.838 0 0 1-1.142.352 8.1 8.1 0 0 0-3.832-.965H59.889a8.31 8.31 0 0 0-8.25 8.351v11.085a.85.85 0 0 1-.844.855" transform="translate(-35.95 -64.346)" style="fill:#fff;stroke:#fff;stroke-width:.5px"/>
        <path data-name="패스 466" d="M81.323 19a9.5 9.5 0 1 1 9.5-9.5 9.511 9.511 0 0 1-9.5 9.5m0-17.311A7.811 7.811 0 1 0 89.134 9.5a7.819 7.819 0 0 0-7.811-7.81" transform="translate(-51.823)" style="fill:#fff;stroke:#fff;stroke-width:.5px"/>
        <path data-name="패스 467" d="M79.143 190.616H.857a1.012 1.012 0 0 1 0-2h78.286a1.012 1.012 0 0 1 0 2" transform="translate(0 -136.615)" style="fill:#fff;stroke:#fff;stroke-width:.5px"/>
        <path data-name="패스 468" d="M216.589 231.766h-12.864a4.573 4.573 0 0 1-4.568-4.568v-12.864a4.573 4.573 0 0 1 4.568-4.568h12.864a4.573 4.573 0 0 1 4.568 4.568V227.2a4.573 4.573 0 0 1-4.568 4.568m-12.864-20.248a2.819 2.819 0 0 0-2.816 2.816V227.2a2.819 2.819 0 0 0 2.816 2.816h12.864a2.819 2.819 0 0 0 2.811-2.816v-12.866a2.819 2.819 0 0 0-2.816-2.816z" transform="translate(-144.157 -151.765)" style="fill:#fff;stroke:#fff;stroke-width:.5px"/>
        <path data-name="패스 469" d="M30.482 231.766H17.618a4.573 4.573 0 0 1-4.568-4.566v-12.866a4.573 4.573 0 0 1 4.568-4.568h12.864a4.573 4.573 0 0 1 4.568 4.568V227.2a4.573 4.573 0 0 1-4.568 4.568m-12.864-20.25a2.819 2.819 0 0 0-2.816 2.816V227.2a2.819 2.819 0 0 0 2.816 2.816h12.864A2.819 2.819 0 0 0 33.3 227.2v-12.866a2.819 2.819 0 0 0-2.816-2.816z" transform="translate(-10.05 -151.765)" style="fill:#fff;stroke:#fff;stroke-width:.5px"/>
        <path data-name="패스 470" d="M35.823 242.693a.811.811 0 0 1-.589-.258L31.8 238.8a.917.917 0 0 1 0-1.245.8.8 0 0 1 1.177 0l2.847 3.012 5.311-5.617a.8.8 0 0 1 1.177 0 .916.916 0 0 1 0 1.245l-5.9 6.24a.811.811 0 0 1-.589.258" transform="translate(-22.555 -169.694)" style="fill:#fff;stroke:#fff;stroke-width:.5px"/>
        <path data-name="패스 471" d="M123.535 231.766h-12.863a4.573 4.573 0 0 1-4.572-4.566v-12.866a4.573 4.573 0 0 1 4.568-4.568h12.864a4.573 4.573 0 0 1 4.569 4.568V227.2a4.573 4.573 0 0 1-4.569 4.568m-12.864-20.248a2.819 2.819 0 0 0-2.816 2.816V227.2a2.819 2.819 0 0 0 2.816 2.816h12.864a2.819 2.819 0 0 0 2.816-2.816v-12.866a2.819 2.819 0 0 0-2.816-2.816z" transform="translate(-77.104 -151.765)" style="fill:#fff;stroke:#fff;stroke-width:.5px"/>
        <path data-name="패스 472" d="M128.876 242.693a.807.807 0 0 1-.588-.258l-3.436-3.634a.917.917 0 0 1 0-1.245.8.8 0 0 1 1.177 0l2.847 3.012 5.311-5.617a.8.8 0 0 1 1.177 0 .916.916 0 0 1 0 1.245l-5.9 6.24a.808.808 0 0 1-.589.258" transform="translate(-90.608 -169.694)" style="fill:#fff;stroke:#fff;stroke-width:.5px"/>
    </g>
</svg>
