<svg xmlns="http://www.w3.org/2000/svg" width="80" height="85.139" viewBox="0 0 80 85.139">
    <defs>
        <clipPath id="al8f37qhwa">
            <path data-name="사각형 1532" style="fill:#fff;stroke:#fff;stroke-width:.5px" d="M0 0h80v85.139H0z"/>
        </clipPath>
    </defs>
    <g data-name="그룹 747" style="clip-path:url(#al8f37qhwa)">
        <path data-name="패스 449" d="M123.562 83a.955.955 0 0 1-.064-1.906 22.725 22.725 0 0 0 6.134-1.526 38.508 38.508 0 0 0 9.355-5.273c5.844-4.4 13.042-10.488 16.918-18.645a.846.846 0 0 1 .04-.1 27.771 27.771 0 0 0 2.672-12.044V10.648C146.11 10.5 134.64 7.415 126.9 2.113a41.572 41.572 0 0 1-9.141 4.61.936.936 0 0 1-1.2-.572.958.958 0 0 1 .563-1.222 39.042 39.042 0 0 0 9.24-4.754.928.928 0 0 1 1.082 0c7.512 5.367 19.519 8.571 32.119 8.571a.947.947 0 0 1 .94.954v33.81a29.725 29.725 0 0 1-2.828 12.808.7.7 0 0 1-.034.082c-4.046 8.572-11.494 14.886-17.529 19.428a40.4 40.4 0 0 1-9.815 5.527A24.183 24.183 0 0 1 123.629 83h-.067" transform="translate(-80.496)" style="fill:#fff;stroke:#fff;stroke-width:.5px"/>
        <path data-name="패스 450" d="M44.87 32.028a11.5 11.5 0 1 1 11.5-11.5 11.513 11.513 0 0 1-11.5 11.5m0-21.124a9.624 9.624 0 1 0 9.623 9.624A9.635 9.635 0 0 0 44.87 10.9" transform="translate(-23.37 -6.027)" style="fill:#fff;stroke:#fff;stroke-width:.5px"/>
        <path data-name="패스 451" d="M14.99 139.441H7.441A7.36 7.36 0 0 1 0 132.182v-14.65c0-6.893 4.979-12.091 11.583-12.091h20.828a11.532 11.532 0 0 1 11.535 10.912c.039.367.052 2.063.054 2.4a.945.945 0 0 1-.952.939.971.971 0 0 1-.963-.928c-.006-.944-.025-2.039-.046-2.236a9.678 9.678 0 0 0-9.628-9.218H11.583c-5.512 0-9.668 4.4-9.668 10.223v14.65a5.466 5.466 0 0 0 5.526 5.392h7.549a.934.934 0 1 1 0 1.868" transform="translate(0 -73.442)" style="fill:#fff;stroke:#fff;stroke-width:.5px"/>
        <path data-name="패스 452" d="M39.751 162.376h-7a.966.966 0 0 1-1-.926v-8.15a1 1 0 0 1 2 0v7.222h6a.929.929 0 1 1 0 1.852" transform="translate(-21.753 -105.376)" style="fill:#fff;stroke:#fff;stroke-width:.5px"/>
        <path data-name="패스 453" d="M113.515 263.1a.977.977 0 0 1-1-.951v-5.1a1 1 0 0 1 2 0v5.1a.977.977 0 0 1-1 .951" transform="translate(-78.515 -178.095)" style="fill:#fff;stroke:#fff;stroke-width:.5px"/>
        <path data-name="패스 454" d="M25.266 232.471a.969.969 0 0 1-1-.935v-18.13a1 1 0 0 1 2 0v18.129a.97.97 0 0 1-1 .935" transform="translate(-17.266 -147.47)" style="fill:#fff;stroke:#fff;stroke-width:.5px"/>
        <path data-name="패스 455" d="M85.962 184.675H62.371a.94.94 0 0 1-.74-.362.952.952 0 0 1-.175-.81l5.525-23.1a.944.944 0 0 1 .916-.727h23.59a.942.942 0 0 1 .741.362.952.952 0 0 1 .175.81l-5.524 23.1a.944.944 0 0 1-.916.727m-22.394-1.9h21.65l5.071-21.2H68.639z" transform="translate(-42.429 -110.676)" style="fill:#fff;stroke:#fff;stroke-width:.5px"/>
    </g>
</svg>
