<svg xmlns="http://www.w3.org/2000/svg" width="64" height="61.715" viewBox="0 0 64 61.715">
    <defs>
        <clipPath id="93jppql0fa">
            <path data-name="사각형 1515" style="fill:none" d="M0 0h64v61.715H0z"/>
        </clipPath>
    </defs>
    <g data-name="그룹 726" transform="translate(0 -.001)" style="clip-path:url(#93jppql0fa)">
        <path data-name="패스 335" d="M20.621 33.474a12.813 12.813 0 1 1 25.626 0" transform="translate(-1.46 -1.462)" style="fill:#fff"/>
        <path data-name="패스 336" d="M47.105 33.4h-1.858a11.884 11.884 0 1 0-23.768 0h-1.858a13.742 13.742 0 1 1 27.484 0" transform="translate(-1.389 -1.391)" style="fill:#c31023"/>
        <path data-name="패스 337" d="m54.162 43.636-1.717-.714 1.733-4.168a2.747 2.747 0 0 1 1.886-1.65l5.861-1.627a.3.3 0 0 0 .217-.221v-6.49a.292.292 0 0 0-.168-.208l-5.955-1.649a2.742 2.742 0 0 1-1.858-1.7l-1.7-4.116a2.748 2.748 0 0 1 .166-2.5l2.989-5.3a.3.3 0 0 0 0-.309L51.032 8.4a.3.3 0 0 0-.267-.029l-5.38 3.04a2.745 2.745 0 0 1-2.515.112l-4.115-1.701A2.747 2.747 0 0 1 37.1 7.936l-1.622-5.863a.3.3 0 0 0-.22-.215h-6.49a.293.293 0 0 0-.209.168l-1.65 5.955a2.746 2.746 0 0 1-1.7 1.858l-4.116 1.7a2.75 2.75 0 0 1-2.5-.165l-5.3-2.99a.307.307 0 0 0-.309 0L8.4 12.969a.293.293 0 0 0-.029.266l3.041 5.381a2.748 2.748 0 0 1 .112 2.514l-1.702 4.115A2.743 2.743 0 0 1 7.936 26.9l-5.862 1.622a.3.3 0 0 0-.216.22v6.49a.293.293 0 0 0 .167.208l5.956 1.65a2.746 2.746 0 0 1 1.858 1.7l1.7 4.116-1.717.71L8.1 39.441a1 1 0 0 0-.568-.547l-5.954-1.65A2.127 2.127 0 0 1 0 35.232v-6.49a2.139 2.139 0 0 1 1.626-2.024l5.862-1.627a.991.991 0 0 0 .6-.5l1.754-4.227a1 1 0 0 0-.014-.789l-3.04-5.381a2.125 2.125 0 0 1 .307-2.537l4.575-4.584a2.141 2.141 0 0 1 2.58-.282l5.3 2.989a.994.994 0 0 0 .781.067L24.558 8.1a.99.99 0 0 0 .547-.567l1.65-5.955A2.1 2.1 0 0 1 28.768 0h6.49a2.14 2.14 0 0 1 2.022 1.625l1.627 5.862a.984.984 0 0 0 .5.6l4.227 1.753a1 1 0 0 0 .79-.015l5.379-3.039a2.13 2.13 0 0 1 2.538.306l4.582 4.581a2.114 2.114 0 0 1 .282 2.58l-2.989 5.3a.983.983 0 0 0-.068.779l1.752 4.226a.994.994 0 0 0 .566.547l5.956 1.649A2.125 2.125 0 0 1 64 28.766v6.49a2.14 2.14 0 0 1-1.627 2.024l-5.861 1.627a.986.986 0 0 0-.6.5z" style="fill:#c31023"/>
        <path data-name="패스 338" d="M22.9 34.075a4.92 4.92 0 1 1-4.919-4.919 4.919 4.919 0 0 1 4.919 4.919" transform="translate(-.925 -2.063)" style="fill:#fff"/>
        <path data-name="패스 339" d="M17.772 41.57a7.707 7.707 0 1 1 7.707-7.708 7.716 7.716 0 0 1-7.707 7.708m0-9.84a2.132 2.132 0 1 0 2.128 2.132 2.134 2.134 0 0 0-2.132-2.132" transform="translate(-.712 -1.851)" style="fill:#fff"/>
        <path data-name="패스 340" d="M25.533 44.235H9.344a3.99 3.99 0 0 0-3.99 3.99v13.832" transform="translate(-.379 -3.131)" style="fill:#fff"/>
        <path data-name="패스 341" d="M5.142 64.633a2.787 2.787 0 0 1-2.788-2.788V48.013a6.785 6.785 0 0 1 6.778-6.778h16.189a2.788 2.788 0 0 1 0 5.575H9.132a1.2 1.2 0 0 0-1.2 1.2v13.835a2.787 2.787 0 0 1-2.788 2.788" transform="translate(-.167 -2.918)" style="fill:#fff"/>
        <path data-name="패스 342" d="M16.499 37.001a5.5 5.5 0 1 1 5.5-5.5 5.506 5.506 0 0 1-5.5 5.5m0-9.252a3.752 3.752 0 1 0 3.752 3.752 3.756 3.756 0 0 0-3.752-3.755"/>
        <path data-name="패스 343" d="M5.904 59.856H4.046V45.094a4.925 4.925 0 0 1 4.919-4.919h17.118v1.858H8.965a3.065 3.065 0 0 0-3.061 3.061z"/>
        <path data-name="사각형 1513" d="M10.199 51.891h1.858v7.965h-1.858z"/>
        <path data-name="패스 344" d="M55.062 34.075a4.92 4.92 0 1 1-4.919-4.919 4.919 4.919 0 0 1 4.919 4.919" transform="translate(-3.201 -2.063)" style="fill:#fff"/>
        <path data-name="패스 345" d="M49.929 41.57a7.707 7.707 0 1 1 7.708-7.708 7.716 7.716 0 0 1-7.708 7.708m0-9.84a2.132 2.132 0 1 0 2.133 2.132 2.134 2.134 0 0 0-2.133-2.132" transform="translate(-2.988 -1.851)" style="fill:#fff"/>
        <path data-name="패스 346" d="M64.559 64.633h-5.575v-16.62a1.2 1.2 0 0 0-1.2-1.2H38.805v-5.578h18.977a6.785 6.785 0 0 1 6.778 6.778z" transform="translate(-2.747 -2.918)" style="fill:#fff"/>
        <path data-name="패스 347" d="M46.5 37.001a5.5 5.5 0 1 1 5.5-5.5 5.506 5.506 0 0 1-5.5 5.5m0-9.252a3.752 3.752 0 1 0 3.753 3.752 3.756 3.756 0 0 0-3.753-3.755"/>
        <path data-name="패스 348" d="M59.954 59.856h-1.858V45.094a3.065 3.065 0 0 0-3.061-3.061H37.917v-1.858h17.118a4.925 4.925 0 0 1 4.919 4.919z"/>
        <path data-name="사각형 1514" d="M51.942 51.891H53.8v7.965h-1.858z"/>
        <path data-name="패스 349" d="M11.128 55.548a.929.929 0 0 1-.929-.929V50.37a.929.929 0 0 1 1.858 0v4.248a.929.929 0 0 1-.929.929"/>
        <path data-name="패스 350" d="M52.871 55.548a.928.928 0 0 1-.929-.929V50.37a.929.929 0 0 1 1.858 0v4.248a.928.928 0 0 1-.929.929"/>
        <path data-name="패스 351" d="M38.983 43.86a4.92 4.92 0 1 1-4.919-4.919 4.92 4.92 0 0 1 4.919 4.919" transform="translate(-2.063 -2.756)" style="fill:#fff"/>
        <path data-name="패스 352" d="M33.851 51.355a7.707 7.707 0 1 1 7.706-7.707 7.715 7.715 0 0 1-7.706 7.707m0-9.839a2.132 2.132 0 1 0 2.131 2.132 2.134 2.134 0 0 0-2.131-2.132" transform="translate(-1.85 -2.543)" style="fill:#fff"/>
        <path data-name="패스 353" d="M32.002 47a6 6 0 1 1 6-6 6.006 6.006 0 0 1-6 6m0-10.093A4.093 4.093 0 1 0 36.094 41a4.1 4.1 0 0 0-4.092-4.093"/>
        <path data-name="패스 354" d="M45 59h-1.857v-5.354a2.981 2.981 0 0 0-3.057-2.891H23.914a2.981 2.981 0 0 0-3.058 2.891V59H19v-5.354A4.791 4.791 0 0 1 23.914 49h16.173A4.79 4.79 0 0 1 45 53.646z"/>
    </g>
</svg>
