<svg xmlns="http://www.w3.org/2000/svg" width="65" height="60" viewBox="0 0 65 60">
    <defs>
        <clipPath id="snebb08uaa">
            <path data-name="사각형 1556" style="fill:none" d="M0 0h65v60H0z"/>
        </clipPath>
    </defs>
    <g data-name="그룹 773" style="clip-path:url(#snebb08uaa)">
        <path data-name="패스 742" d="M236.48 120.05a.663.663 0 0 1-.663-.663V95.293a.663.663 0 0 1 .663-.662h1.82l-9.639-8.1-4.225 3.549a.663.663 0 0 1-.852-1.016l4.652-3.907a.663.663 0 0 1 .852 0l11.458 9.628a.663.663 0 0 1-.426 1.17h-2.978v23.431a.663.663 0 0 1-.663.663" transform="translate(-175.782 -66.89)" style="fill:#c31023"/>
        <path data-name="패스 743" d="M4.3 120.05a.663.663 0 0 1-.663-.663V95.956H.662a.663.663 0 0 1-.426-1.17L11.7 85.157a.663.663 0 0 1 .852 0l4.648 3.907a.663.663 0 0 1-.852 1.015l-4.221-3.549-9.642 8.1H4.3a.663.663 0 0 1 .663.662v24.094a.663.663 0 0 1-.663.663" transform="translate(0 -66.89)" style="fill:#c31023"/>
        <path data-name="패스 744" d="M99.559 46.157a.663.663 0 0 1-.662-.663v-30.72a.663.663 0 0 1 .662-.663h3.515L88.1 1.528 73.125 14.111h3.515a.663.663 0 0 1 .663.663v30.72a.663.663 0 1 1-1.325 0V15.437h-4.672a.663.663 0 0 1-.426-1.171L87.673.155a.662.662 0 0 1 .852 0l16.794 14.111a.663.663 0 0 1-.426 1.171h-4.672v30.057a.663.663 0 0 1-.663.663" transform="translate(-55.599)" style="fill:#c31023"/>
        <path data-name="패스 745" d="M47.157 60.001a.663.663 0 0 1-.663-.663c0-5.264-6.67-10.058-13.994-10.058s-13.996 4.793-13.996 10.057a.663.663 0 1 1-1.325 0c0-6.515 8.088-11.384 15.319-11.384s15.319 4.869 15.319 11.384a.663.663 0 0 1-.663.663"/>
        <path data-name="패스 746" d="M32.501 43.752a7.553 7.553 0 1 1 7.549-7.55 7.559 7.559 0 0 1-7.549 7.553m0-13.779a6.227 6.227 0 1 0 6.224 6.226 6.232 6.232 0 0 0-6.224-6.227"/>
    </g>
</svg>
