<svg xmlns="http://www.w3.org/2000/svg" width="67" height="60" viewBox="0 0 67 60">
    <defs>
        <clipPath id="q6xrxr6q3a">
            <path data-name="사각형 1553" style="fill:none" d="M0 0h67v60H0z"/>
        </clipPath>
    </defs>
    <g data-name="그룹 769" style="clip-path:url(#q6xrxr6q3a)">
        <path data-name="패스 724" d="M0 23.213a23.13 23.13 0 0 1 42.72-12.38.673.673 0 1 1-1.138.72 21.82 21.82 0 1 0-18.441 33.523c.421 0 .845-.013 1.258-.039a.675.675 0 0 1 .084 1.347c-.441.028-.893.042-1.342.042A23.2 23.2 0 0 1 0 23.213" style="fill:#c31023"/>
        <path data-name="패스 725" d="M70.8 90.389a.67.67 0 0 1-.476-.2l-5.732-5.75a.674.674 0 0 1 .951-.954L70.8 88.76l10.88-10.914a.674.674 0 0 1 .951.954L71.276 90.191a.67.67 0 0 1-.476.2" transform="translate(-50.471 -60.806)" style="fill:#c31023"/>
        <path data-name="패스 726" d="M59.251 60h-8.5a.675.675 0 0 1 0-1.35h8.007l6.649-20.982h-17.22l-2.592 8.233a.673.673 0 1 1-1.283-.406l2.74-8.7a.673.673 0 0 1 .642-.472h18.633a.674.674 0 0 1 .641.879L59.895 59.53a.673.673 0 0 1-.641.47"/>
        <path data-name="패스 727" d="M48.659 31.709a9.245 9.245 0 0 1-.011-18.487h.01a8.9 8.9 0 0 1 6.4 2.7 9.282 9.282 0 0 1 2.654 6.529 9.16 9.16 0 0 1-9.043 9.253zm0-17.137h-.008a7.9 7.9 0 0 0 .009 15.787h.008a7.812 7.812 0 0 0 7.7-7.9 7.937 7.937 0 0 0-2.268-5.584 7.569 7.569 0 0 0-5.44-2.3"/>
        <path data-name="패스 728" d="M43.88 59.014H33.491a5.249 5.249 0 0 1-5.235-5.251v-8.786a9.472 9.472 0 0 1 9.584-9.781l5.357-.009a.675.675 0 0 1 0 1.35l-5.358.009a8.154 8.154 0 0 0-8.24 8.432v8.786a3.9 3.9 0 0 0 3.889 3.9H43.88a3.357 3.357 0 0 0 3.348-3.359 3.291 3.291 0 0 0-.4-1.577 3.173 3.173 0 0 0-.583-.791 3.309 3.309 0 0 0-2.369-.99h-6.913a.674.674 0 0 1-.673-.675v-3.193a.673.673 0 1 1 1.345 0v2.519h6.24a4.637 4.637 0 0 1 3.318 1.383 4.5 4.5 0 0 1 .822 1.113 4.706 4.706 0 0 1-4.139 6.921"/>
    </g>
</svg>
