<svg xmlns="http://www.w3.org/2000/svg" width="60" height="53" viewBox="0 0 60 53">
    <defs>
        <clipPath id="e26elghlwa">
            <path data-name="사각형 1552" style="fill:none" d="M0 0h60v53H0z"/>
        </clipPath>
    </defs>
    <g data-name="그룹 768" style="clip-path:url(#e26elghlwa)">
        <path data-name="패스 716" d="M120.346 64.484a.637.637 0 0 1-.639-.635v-2.074a4.245 4.245 0 0 0-4.256-4.225h-6.391a4.243 4.243 0 0 0-4.251 4.225v2.074a.639.639 0 0 1-1.278 0v-2.074a5.519 5.519 0 0 1 5.529-5.5h6.391a5.521 5.521 0 0 1 5.534 5.5v2.074a.637.637 0 0 1-.639.635" transform="translate(-82.258 -44.785)" style="fill:#c31023"/>
        <path data-name="패스 717" d="M128.97 8.756a4.378 4.378 0 1 1 4.4-4.378 4.4 4.4 0 0 1-4.4 4.378m0-7.485a3.107 3.107 0 1 0 3.13 3.107 3.121 3.121 0 0 0-3.126-3.107" transform="translate(-98.97)" style="fill:#c31023"/>
        <path data-name="패스 718" d="M11.123 114.7a.637.637 0 0 1-.639-.635V99.123a4.1 4.1 0 0 1 4.1-4.079h5.651a4.071 4.071 0 0 1 4.079 3.674.639.639 0 0 1-1.273.123 2.8 2.8 0 0 0-2.806-2.526h-5.648a2.82 2.82 0 0 0-2.825 2.808v14.938a.637.637 0 0 1-.639.635" transform="translate(-8.33 -75.633)" style="fill:#c31023"/>
        <path data-name="패스 719" d="M27.069 45.059a4.4 4.4 0 1 1 4.431-4.4 4.422 4.422 0 0 1-4.431 4.4m0-7.537a3.133 3.133 0 1 0 3.152 3.133 3.146 3.146 0 0 0-3.152-3.133" transform="translate(-17.986 -28.847)" style="fill:#c31023"/>
        <path data-name="패스 720" d="M227.378 114.7a.637.637 0 0 1-.639-.635V99.123a2.82 2.82 0 0 0-2.825-2.808h-5.651a2.8 2.8 0 0 0-2.806 2.526.644.644 0 0 1-.7.571.637.637 0 0 1-.575-.694 4.071 4.071 0 0 1 4.079-3.674h5.651a4.1 4.1 0 0 1 4.1 4.079v14.938a.637.637 0 0 1-.639.635" transform="translate(-170.171 -75.633)" style="fill:#c31023"/>
        <path data-name="패스 721" d="M230.671 45.059a4.4 4.4 0 1 1 4.431-4.4 4.422 4.422 0 0 1-4.431 4.4m0-7.537a3.133 3.133 0 1 0 3.152 3.133 3.146 3.146 0 0 0-3.152-3.133" transform="translate(-179.753 -28.847)" style="fill:#c31023"/>
        <path data-name="패스 722" d="M56.055 53.003H3.946a3.909 3.909 0 0 1-3.56-2.238 3.864 3.864 0 0 1 .508-4.162l18.414-22.4a3.934 3.934 0 0 1 3.051-1.438h15.282a3.934 3.934 0 0 1 3.051 1.438l18.414 22.4a3.865 3.865 0 0 1 .509 4.156 3.909 3.909 0 0 1-3.56 2.238m-33.7-28.965a2.658 2.658 0 0 0-2.061.972L1.88 47.404a2.577 2.577 0 0 0-.344 2.807 2.607 2.607 0 0 0 2.4 1.512h52.119a2.608 2.608 0 0 0 2.4-1.512 2.578 2.578 0 0 0-.344-2.807L39.7 25.003a2.658 2.658 0 0 0-2.061-.972z"/>
        <path data-name="패스 723" d="M27.834 48.756H15.351a.635.635 0 1 1 0-1.271h12.483a.635.635 0 1 1 0 1.271"/>
    </g>
</svg>
