<svg xmlns="http://www.w3.org/2000/svg" width="55" height="72" viewBox="0 0 55 72">
    <defs>
        <clipPath id="kbyy2zumia">
            <path data-name="사각형 1554" style="fill:none" d="M0 0h55v72H0z"/>
        </clipPath>
    </defs>
    <g data-name="그룹 770" style="clip-path:url(#kbyy2zumia)">
        <path data-name="패스 729" d="M42.282 37.964a.664.664 0 0 1-.306-.075.672.672 0 0 1-.285-.9 2.619 2.619 0 0 0 .289-1.215V25.506a6.066 6.066 0 0 0-6.044-6.075h-16.87a6.069 6.069 0 0 0-6.049 6.075v10.265a2.614 2.614 0 0 0 .289 1.214.672.672 0 0 1-.284.9.665.665 0 0 1-.9-.285 4 4 0 0 1-.44-1.832V25.506a7.407 7.407 0 0 1 7.384-7.413h16.87a7.4 7.4 0 0 1 7.377 7.415v10.265a4.01 4.01 0 0 1-.439 1.832.666.666 0 0 1-.592.362"/>
        <path data-name="패스 730" d="M37.025 38.971a.639.639 0 0 1-.388-.132 1.7 1.7 0 0 1-.161-.142l-.033-.031a4.078 4.078 0 0 1-1.205-2.895v-9.6a.667.667 0 1 1 1.333 0v9.6a2.728 2.728 0 0 0 .793 1.927l.077.073a.684.684 0 0 1 .11.94.669.669 0 0 1-.525.261"/>
        <path data-name="패스 731" d="M17.965 38.97a.663.663 0 0 1-.5-.226.672.672 0 0 1 .058-.946 2.711 2.711 0 0 0 .9-2.026v-9.6a.667.667 0 1 1 1.333 0v9.6a4.053 4.053 0 0 1-1.354 3.03.661.661 0 0 1-.441.168"/>
        <path data-name="패스 732" d="M27.5 15.188a7.594 7.594 0 1 1 7.555-7.594 7.583 7.583 0 0 1-7.555 7.594m0-13.847a6.254 6.254 0 1 0 6.222 6.254A6.245 6.245 0 0 0 27.5 1.341"/>
        <path data-name="패스 733" d="M70.095 234.989a3.422 3.422 0 0 1-3.353-4.005l.958-5.611-4.057-3.973a3.428 3.428 0 0 1 1.888-5.839l5.6-.819 2.507-5.1a3.4 3.4 0 0 1 6.108 0l2.506 5.1 5.6.819a3.428 3.428 0 0 1 1.888 5.839l-4.056 3.973.958 5.611a3.41 3.41 0 0 1-1.355 3.348 3.37 3.37 0 0 1-3.587.261l-5-2.65-5.013 2.649a3.4 3.4 0 0 1-1.588.4m6.6-25.92a2.033 2.033 0 0 0-1.859 1.161l-2.662 5.421a.666.666 0 0 1-.5.366l-5.951.869a2.086 2.086 0 0 0-1.149 3.553l4.307 4.219a.673.673 0 0 1 .192.593l-1.017 5.958a2.049 2.049 0 0 0 .825 2.037 2.025 2.025 0 0 0 2.182.158l5.323-2.813a.664.664 0 0 1 .621 0l5.323 2.813a2.024 2.024 0 0 0 2.183-.159 2.049 2.049 0 0 0 .825-2.037l-1.017-5.958a.673.673 0 0 1 .192-.593l4.307-4.219a2.086 2.086 0 0 0-1.149-3.553l-5.951-.869a.665.665 0 0 1-.5-.367l-2.661-5.421a2.033 2.033 0 0 0-1.858-1.161" transform="translate(-49.196 -162.989)" style="fill:#c31023"/>
        <path data-name="패스 734" d="M177.592 217.455a3.4 3.4 0 0 1-1.591-.4l-5.076-2.684a.672.672 0 0 1-.279-.9.664.664 0 0 1 .9-.281l5.076 2.684a2.072 2.072 0 0 0 3.007-2.194l-1.014-5.961a.673.673 0 0 1 .192-.593l4.307-4.216a2.09 2.09 0 0 0-1.15-3.556l-5.953-.867a.668.668 0 0 1-.5-.367l-2.661-5.423a2.067 2.067 0 0 0-3.714 0l-2.322 4.737a.667.667 0 1 1-1.2-.592l2.323-4.738a3.4 3.4 0 0 1 6.106 0l2.506 5.107 5.607.816a3.432 3.432 0 0 1 1.89 5.841l-4.058 3.972.955 5.613a3.419 3.419 0 0 1-3.351 4.005" transform="translate(-130.073 -149.231)" style="fill:#c31023"/>
        <path data-name="패스 735" d="M7.481 217.455a3.419 3.419 0 0 1-3.351-4.006l.955-5.611-4.056-3.97a3.432 3.432 0 0 1 1.888-5.842l5.607-.816 2.506-5.11a3.4 3.4 0 0 1 6.106 0l2.323 4.739a.667.667 0 1 1-1.2.592l-2.323-4.738a2.067 2.067 0 0 0-3.715 0l-2.66 5.422a.668.668 0 0 1-.5.367l-5.954.867a2.09 2.09 0 0 0-1.148 3.557l4.306 4.215a.673.673 0 0 1 .192.593l-1.014 5.96a2.046 2.046 0 0 0 .822 2.038 2.025 2.025 0 0 0 2.184.158l5.077-2.685a.665.665 0 0 1 .9.281.672.672 0 0 1-.28.9l-5.077 2.684a3.394 3.394 0 0 1-1.59.4" transform="translate(0 -149.231)" style="fill:#c31023"/>
    </g>
</svg>
