<svg xmlns="http://www.w3.org/2000/svg" width="60" height="61" viewBox="0 0 60 61">
    <defs>
        <clipPath id="xocs302jka">
            <path data-name="사각형 1555" style="fill:none" d="M0 0h60v61H0z"/>
        </clipPath>
    </defs>
    <g data-name="그룹 771" style="clip-path:url(#xocs302jka)">
        <path data-name="패스 736" d="M75.534 111.737a4.105 4.105 0 0 1-1.969-.506l-11.356-6.19a4.191 4.191 0 0 1-1.532-5.9l3.628-5.779a10 10 0 0 1 8.512-4.721h11.295a10 10 0 0 1 8.512 4.721l3.629 5.78a4.195 4.195 0 0 1-1.528 5.9l-11.361 6.191a1.873 1.873 0 0 1-.188.089.626.626 0 0 1-.809-.364.633.633 0 0 1 .354-.812l.062-.032 11.345-6.182a2.927 2.927 0 0 0 1.066-4.12l-3.628-5.779a8.758 8.758 0 0 0-7.454-4.133H72.818a8.758 8.758 0 0 0-7.453 4.134l-3.628 5.779a2.924 2.924 0 0 0 1.068 4.118l11.356 6.19a2.884 2.884 0 0 0 3.928-1.184A2.929 2.929 0 0 0 76.92 105l-6.639-3.625a.633.633 0 0 1-.254-.852l1.111-2.092a.623.623 0 0 1 .848-.259.632.632 0 0 1 .257.854l-.817 1.539 6.091 3.325a4.2 4.2 0 0 1 1.677 5.644 4.151 4.151 0 0 1-3.66 2.2" transform="translate(-47.939 -70.658)" style="fill:#c31023"/>
        <path data-name="패스 737" d="M167.757 140.857a.626.626 0 0 1-.551-.33.633.633 0 0 1 .252-.855l3.559-1.944-.817-1.54a.632.632 0 0 1 .257-.854.624.624 0 0 1 .848.259l1.112 2.092a.633.633 0 0 1-.254.852l-4.107 2.243a.62.62 0 0 1-.3.076" transform="translate(-133.453 -107.821)" style="fill:#c31023"/>
        <path data-name="패스 738" d="M121.88 15.045a7.522 7.522 0 1 1 7.472-7.522 7.506 7.506 0 0 1-7.472 7.522m0-13.782a6.26 6.26 0 1 0 6.219 6.26 6.246 6.246 0 0 0-6.219-6.26" transform="translate(-91.355)" style="fill:#c31023"/>
        <path data-name="패스 739" d="M56.543 50.215H3.461A3.421 3.421 0 0 1 .7 48.824a3.472 3.472 0 0 1-.555-3.062l3.1-10.7a3.44 3.44 0 0 1 3.321-2.506h2.005a.631.631 0 0 1 0 1.262h-2.01a2.194 2.194 0 0 0-2.117 1.6l-3.1 10.7a2.212 2.212 0 0 0 .356 1.951 2.179 2.179 0 0 0 1.763.887h53.08a2.18 2.18 0 0 0 1.763-.889 2.206 2.206 0 0 0 .35-1.949l-3.1-10.7a2.22 2.22 0 0 0-2.117-1.6h-.957a.631.631 0 0 1 0-1.262h.957a3.482 3.482 0 0 1 3.32 2.505l3.1 10.7a3.463 3.463 0 0 1-.55 3.059 3.419 3.419 0 0 1-2.766 1.394"/>
        <path data-name="패스 740" d="M9.172 61a.629.629 0 0 1-.627-.631V49.585a.627.627 0 1 1 1.254 0v10.784a.629.629 0 0 1-.627.631"/>
        <path data-name="패스 741" d="M50.83 61a.629.629 0 0 1-.627-.631V49.585a.627.627 0 1 1 1.254 0v10.784a.629.629 0 0 1-.627.631"/>
    </g>
</svg>
