<svg xmlns="http://www.w3.org/2000/svg" width="141.703" height="40.216" viewBox="0 0 141.703 40.216">
    <defs>
        <clipPath id="icnszkifja">
            <path data-name="사각형 1543" style="fill:none" d="M0 0h141.703v40.216H0z"/>
        </clipPath>
    </defs>
    <g data-name="그룹 754" style="clip-path:url(#icnszkifja)">
        <path data-name="패스 511" d="M23.28 11.955A7.317 7.317 0 0 1 19.451 14c-.281.048-.563.085-.839.112-.2.039-.389.087-.583.139a7.42 7.42 0 0 1 5.146 5.149c.055-.194.1-.39.142-.589.025-.277.055-.558.107-.836A7.43 7.43 0 0 1 31.321 12h-.027a7.4 7.4 0 0 1-3.826-2.038 7.467 7.467 0 0 1-2.041-3.809 7.379 7.379 0 0 1-2.148 5.8" transform="translate(2.076 .709)" style="fill:#7f7279"/>
        <path data-name="패스 512" d="m6.1 24.663-.2-.022.2.022" transform="translate(.679 2.837)" style="fill:#7db212"/>
        <path data-name="패스 513" d="M24.668 6.188c-.009-.114-.022-.224-.035-.336.012.1.023.21.03.316a.065.065 0 0 0 0 .02" transform="translate(2.836 .674)" style="fill:#7db212"/>
        <path data-name="패스 514" d="M26.8 6.861a.065.065 0 0 1 0-.02 6.622 6.622 0 0 0-.03-.316q-.023-.2-.057-.4c-.009-.039-.013-.078-.022-.118l-.032-.143a6.986 6.986 0 0 0-.63-1.78c-.033-.064-.064-.126-.1-.187a7.766 7.766 0 0 0-.279-.475l-.13-.192a8.911 8.911 0 0 0-.275-.372l-.137-.172a6.494 6.494 0 0 0-.455-.5 7.416 7.416 0 0 0-10.5 0c-.156.156-.3.322-.444.49a5.669 5.669 0 0 0-.166.21 5.95 5.95 0 0 0-.239.327c-.052.074-.1.148-.153.222-.1.158-.2.32-.288.485l-.066.127a8.255 8.255 0 0 0-.243.524c-.025.061-.048.123-.07.182-.059.149-.11.3-.158.455a7.012 7.012 0 0 0-.18.683c-.008.041-.019.08-.028.122l-.013.084a6.499 6.499 0 0 0-.078.54 4.217 4.217 0 0 0-.018.166.365.365 0 0 1 0 .049 7.426 7.426 0 0 1-2.041 3.829 7.366 7.366 0 0 1-3.826 2.038H6.12A7.42 7.42 0 0 1 14 18.694a6.642 6.642 0 0 1 .116.829c.039.2.085.389.139.583a7.427 7.427 0 0 1 5.145-5.144c.194-.052.388-.1.584-.139.274-.027.558-.064.839-.112a7.314 7.314 0 0 0 3.828-2.047 7.375 7.375 0 0 0 2.148-5.8" transform="translate(.704)" style="fill:#7db212"/>
        <path data-name="패스 515" d="M12.419 32.985c-.052-.08-.1-.163-.146-.246.048.084.094.166.146.246" transform="translate(1.413 3.77)" style="fill:#7f7279"/>
        <path data-name="패스 516" d="M13.364 34.161" transform="translate(1.489 3.879)" style="fill:#7f7279"/>
        <path data-name="패스 517" d="M11.635 31.254c-.037-.128-.068-.256-.1-.388.029.132.06.26.1.388" transform="translate(1.328 3.554)" style="fill:#7f7279"/>
        <path data-name="패스 518" d="M11.485 30.621" transform="translate(1.314 3.47)" style="fill:#7f7279"/>
        <path data-name="패스 519" d="M11.819 31.8" transform="translate(1.346 3.621)" style="fill:#7f7279"/>
        <path data-name="패스 520" d="M12.055 32.334c-.052-.112-.107-.22-.155-.331.048.112.1.22.155.331" transform="translate(1.37 3.685)" style="fill:#7f7279"/>
        <path data-name="패스 521" d="M12.764 33.471a5.796 5.796 0 0 1-.174-.238c.057.08.113.159.174.238" transform="translate(1.449 3.826)" style="fill:#7f7279"/>
        <path data-name="패스 522" d="M5.9 11.423" transform="translate(.679 1.313)" style="fill:#7f7279"/>
        <path data-name="패스 523" d="M16.857 22.045a7.389 7.389 0 0 1-1.9-3.249 7.498 7.498 0 0 1-.139-.584 6.624 6.624 0 0 0-.116-.827A7.42 7.42 0 0 0 6.817 11.4c-.08.007-.158.016-.238.025a6.297 6.297 0 0 0-.574.083c-.216.041-.427.1-.639.156l-.156.048c-.162.05-.322.107-.484.171q-.079.028-.157.06a7.509 7.509 0 0 0-1.169.617l-.155.1c-.137.1-.274.2-.407.3-.05.042-.1.081-.153.123-.174.146-.346.3-.51.462a7.43 7.43 0 0 0 0 10.5c.159.158.327.307.5.448.061.052.127.1.19.153.114.089.231.174.351.256.067.048.137.1.206.142q.229.144.464.273l.176.094c.162.083.325.158.491.229.069.028.142.054.213.083.139.052.281.1.423.148.066.019.13.041.2.06.207.059.414.112.626.153.193.032.382.059.574.083l.2.022.064.007a7.346 7.346 0 0 1 3.826 2.034 7.434 7.434 0 0 1 2.041 3.835.22.22 0 0 1 0 .038 7.415 7.415 0 0 1 5.958-7.903 6.3 6.3 0 0 1 .843-.116c.2-.037.389-.085.583-.137a7.374 7.374 0 0 1-3.247-1.9" transform="translate(0 1.31)" style="fill:#7f7279"/>
        <path data-name="패스 524" d="M12.957 33.715q-.11-.13-.211-.268c.069.091.137.181.211.268" transform="translate(1.467 3.851)" style="fill:#003b8f"/>
        <path data-name="패스 525" d="M12.61 33.264c-.071-.1-.142-.2-.207-.3.066.1.136.2.207.3" transform="translate(1.428 3.795)" style="fill:#003b8f"/>
        <path data-name="패스 526" d="m29.949 11.4.222.023c-.074-.008-.148-.017-.222-.023" transform="translate(3.448 1.313)" style="fill:#003b8f"/>
        <path data-name="패스 527" d="M11.911 32.031a3.236 3.236 0 0 1-.1-.27l.1.27" transform="translate(1.359 3.657)" style="fill:#003b8f"/>
        <path data-name="패스 528" d="M11.7 31.47c-.026-.085-.055-.172-.078-.256.023.085.052.172.078.256" transform="translate(1.338 3.594)" style="fill:#003b8f"/>
        <path data-name="패스 529" d="M11.417 30.162c-.006-.066-.016-.133-.019-.2 0 .066.013.133.019.2" transform="translate(1.312 3.45)" style="fill:#003b8f"/>
        <path data-name="패스 530" d="M12.3 32.79" transform="translate(1.386 3.719)" style="fill:#003b8f"/>
        <path data-name="패스 531" d="M11.478 30.571c.02.112.043.22.068.329-.016-.07-.036-.139-.048-.21-.009-.039-.013-.078-.02-.119" transform="translate(1.321 3.52)" style="fill:#003b8f"/>
        <path data-name="패스 532" d="M36.728 13.549a7.205 7.205 0 0 0-.519-.471l-.122-.1a8.975 8.975 0 0 0-.464-.339l-.1-.066a7.338 7.338 0 0 0-1.231-.647l-.069-.027a6.881 6.881 0 0 0-.59-.206l-.075-.025a8.196 8.196 0 0 0-.662-.163 5.861 5.861 0 0 0-.592-.083c-.074-.009-.148-.018-.222-.025a7.43 7.43 0 0 0-7.9 5.975c-.052.279-.083.56-.107.836-.037.2-.087.394-.142.588a7.414 7.414 0 0 1-5.133 5.148c-.194.052-.388.1-.583.137a6.3 6.3 0 0 0-.843.116A7.415 7.415 0 0 0 11.4 32.1c0 .065.013.133.02.2.017.162.041.321.069.479.007.041.011.08.02.12.012.069.032.139.048.209.028.13.058.259.1.388.023.085.052.172.078.256.039.12.078.238.124.353l.1.27c.048.11.1.22.155.331.08.165.165.329.261.49.048.083.094.165.146.246.066.1.135.2.207.3.056.08.113.159.174.238s.137.181.211.268c.137.162.277.322.429.475a7.424 7.424 0 0 0 10.5 0c.157-.157.3-.32.439-.487.064-.075.123-.153.184-.229.071-.094.141-.187.209-.285s.126-.181.185-.274.107-.177.159-.269c.1-.174.2-.355.281-.535.039-.085.08-.168.117-.253.046-.108.087-.22.128-.329.036-.089.066-.181.1-.27.035-.107.07-.215.1-.322s.061-.235.087-.352c.016-.075.037-.146.05-.222.011-.047.016-.09.025-.136.023-.143.046-.284.06-.428.009-.077.02-.153.027-.229v-.042a7.423 7.423 0 0 1 5.868-5.861l.066-.007.181-.02c.2-.023.4-.052.594-.085.214-.041.427-.1.637-.156l.147-.046c.162-.05.323-.107.479-.168.059-.023.116-.043.172-.067.19-.081.379-.166.564-.262.018-.011.036-.019.052-.028.183-.1.361-.205.541-.318.06-.039.122-.084.183-.125a9.366 9.366 0 0 0 .549-.414 6.91 6.91 0 0 0 .5-.455 7.426 7.426 0 0 0 0-10.5" transform="translate(1.31 1.31)" style="fill:#003b8f"/>
        <path data-name="패스 533" d="M31.763 16.277a2.912 2.912 0 1 1-4.12 0 2.907 2.907 0 0 1 4.12 0" transform="translate(3.084 1.776)" style="fill:#fff"/>
        <path data-name="패스 534" d="M44.406 2.767h4.657v7.122h.048l5.253-7.122h5.6l-6.454 8.128 6.956 9.337h-5.93L49.111 12.3h-.048v7.936h-4.657z" transform="translate(5.112 .319)" style="fill:#003b8f"/>
        <path data-name="사각형 1541" transform="translate(68.937 3.086)" style="fill:#003b8f" d="M0 0h4.655v17.465H0z"/>
        <path data-name="패스 535" d="M73.262 6.219h-4.305V2.766h13.252v3.453h-4.3v14.012h-4.647z" transform="translate(7.939 .319)" style="fill:#003b8f"/>
        <path data-name="패스 536" d="M83.5 2.767h12.3v3.308h-7.65v3.6h7.226v3.3H88.15v3.951h7.927v3.309H83.5z" transform="translate(9.612 .319)" style="fill:#003b8f"/>
        <path data-name="패스 537" d="M112.447 19.859a19.2 19.2 0 0 1-5.178.7c-4.653 0-10.034-2.352-10.034-8.956 0-6.077 4.256-9.1 10-9.1a18.086 18.086 0 0 1 5.18.9l-.375 3.779a9.092 9.092 0 0 0-4.552-1.231 5.3 5.3 0 0 0-5.445 5.659c0 3.423 2.418 5.5 5.825 5.5a12.167 12.167 0 0 0 4.346-.9z" transform="translate(11.194 .289)" style="fill:#003b8f"/>
        <path data-name="패스 538" d="M113.794 2.767h4.652v6.675h5.5V2.767h4.654v17.465h-4.655v-7.486h-5.5v7.486h-4.652z" transform="translate(13.1 .319)" style="fill:#003b8f"/>
        <path data-name="패스 539" d="M52.485 24.108h-1.523v8.614h-4.73V30.3H44.74v2.731a.979.979 0 0 0 .192.7.829.829 0 0 0 .583.174h6.961v-5.874h1.566V26.8h-1.557z" transform="translate(5.151 2.776)" style="fill:#7f7279"/>
        <path data-name="패스 540" d="M62.221 24.1h-7.712v1.211h6.222v2.039h-6.556v1.22h3.418v1.472h-3.084v1.183h6.222v2.718h1.49v-3.9h-3.108v-1.474h3.6V27.35h-.5z" transform="translate(6.237 2.776)" style="fill:#7f7279"/>
        <path data-name="패스 541" d="M75.389 27.556a3.165 3.165 0 0 0 1.3 1.287 4.571 4.571 0 0 0 1.91.548v-1.222a2.992 2.992 0 0 1-2.059-1.425 5.233 5.233 0 0 1-.377-2.639h-1.617a5.364 5.364 0 0 1-.35 2.614 2.97 2.97 0 0 1-2.031 1.451v1.222A4.652 4.652 0 0 0 74 28.857a3.417 3.417 0 0 0 1.389-1.3" transform="translate(8.308 2.775)" style="fill:#7f7279"/>
        <path data-name="패스 542" d="M80.613 24.1h-1.492v8.576h-4.848v-2.349h-1.494v2.708a1.046 1.046 0 0 0 .213.7.868.868 0 0 0 .584.165h7.036v-6.4h1.314v-1.245h-1.313z" transform="translate(8.379 2.776)" style="fill:#7f7279"/>
        <path data-name="사각형 1542" transform="translate(98.307 26.88)" style="fill:#7f7279" d="M0 0h1.476v9.945H0z"/>
        <path data-name="패스 543" d="M82.249 25.521h4.014a6.218 6.218 0 0 1-.963 3.661 4.22 4.22 0 0 1-3.195 1.581v1.385a5.733 5.733 0 0 0 3.661-1.317c1.311-1.142 1.988-2.952 1.988-5.4V24.31h-5.505z" transform="translate(9.452 2.799)" style="fill:#7f7279"/>
        <path data-name="패스 544" d="M91.337 28.344h3.67v.779H91.76v1.1h6.512v.548H91.76v2.066a.964.964 0 0 0 .209.68.772.772 0 0 0 .58.181h7.218v-1.209h-6.5v-.665h6.5v-2.7h-3.281v-.779h3.72V27.12h-8.869z" transform="translate(10.515 3.123)" style="fill:#7f7279"/>
        <path data-name="패스 545" d="M108.014 25h-1.723a1.526 1.526 0 0 0-.357-.372 3.152 3.152 0 0 0-2.118-.775 3.292 3.292 0 0 0-2.156.775 2.7 2.7 0 0 0-.976 2.109 2.666 2.666 0 0 0 .976 2.075 3.259 3.259 0 0 0 2.156.777 3.121 3.121 0 0 0 2.118-.777 2.867 2.867 0 0 0 .3-.277h1.782v4.157h-4.959v-2.36h-1.475v2.731a.956.956 0 0 0 .214.7.831.831 0 0 0 .577.166h7.149v-9.795h-1.505zm-3.126 2.909a1.447 1.447 0 0 1-1.072.459 1.583 1.583 0 0 1-1.132-.459 1.554 1.554 0 0 1-.5-1.173 1.642 1.642 0 0 1 .5-1.2 1.512 1.512 0 0 1 1.132-.458 1.383 1.383 0 0 1 1.072.458 1.607 1.607 0 0 1 .486 1.2 1.564 1.564 0 0 1-.486 1.173m3.126-.588h-1.172a1.89 1.89 0 0 0 .075-.585 4.145 4.145 0 0 0-.033-.51h1.131z" transform="translate(11.591 2.747)" style="fill:#7f7279"/>
        <path data-name="패스 546" d="M118.429 24.1h-7.55v1.2h6.045v3.224H110.3v1.221h3.57v4.245h1.494v-4.241h3.546v-1.221h-.482z" transform="translate(12.698 2.776)" style="fill:#7f7279"/>
        <path data-name="패스 547" d="M70.493 25.867h-.866V24.1h-1.37v3.5a2.279 2.279 0 0 1-1.577-1.426 4.338 4.338 0 0 1-.26-2.063h-1.542v.539a2.838 2.838 0 0 1-.471 1.81c-.745 1.115-1.4 1.131-1.4 1.131v1.241a3.4 3.4 0 0 0 2.628-1.747 3.378 3.378 0 0 0 1.46 1.41 3.1 3.1 0 0 0-2.216 2.9 3.321 3.321 0 0 0 6.626 0 3.088 3.088 0 0 0-1.878-2.778v-1.55h.866v1.762h1.353V24.1h-1.353zm-2.3 7.322a1.788 1.788 0 1 1 1.825-1.794 1.8 1.8 0 0 1-1.825 1.794" transform="translate(7.253 2.776)" style="fill:#7f7279"/>
        <path data-name="패스 548" d="M95.727 25.8a3.5 3.5 0 0 0 1.91.937 11.551 11.551 0 0 0 2.086.213v-1.23a5.226 5.226 0 0 1-2.063-.356 1.524 1.524 0 0 1-1.16-1.415v-.229h-1.573v.229a1.576 1.576 0 0 1-1.227 1.417 4.869 4.869 0 0 1-1.992.345v1.241a11.1 11.1 0 0 0 2.056-.213 3.751 3.751 0 0 0 1.96-.937" transform="translate(10.558 2.731)" style="fill:#7f7279"/>
        <path data-name="패스 549" d="M44.35 27.523a2.951 2.951 0 0 0 5.854 0 2.408 2.408 0 0 0-.8-1.769h1.126v-1.228h-2.512v-.869h-1.509v.869h-2.531v1.229h1.172a2.392 2.392 0 0 0-.8 1.769m2.927 1.485a1.491 1.491 0 1 1 1.485-1.485 1.5 1.5 0 0 1-1.485 1.485" transform="translate(5.063 2.724)" style="fill:#7f7279"/>
        <path data-name="패스 550" d="M126.445 24.149V28.2h-1.935a2.379 2.379 0 0 0 1.142-1.986 2.865 2.865 0 0 0-5.68 0 2.351 2.351 0 0 0 1.137 1.986h-1.756v1.227h3.15v2.337h1.5v-2.34h2.44v1.117h-1.277v1.215h1.277v.953h-4.938v-2.684h-1.522v3.053a.914.914 0 0 0 .222.7.839.839 0 0 0 .58.166h7.146l.009-9.794zm-3.629.631a1.443 1.443 0 0 1 0 2.877 1.442 1.442 0 0 1 0-2.877" transform="translate(13.74 2.731)" style="fill:#7f7279"/>
    </g>
</svg>
