<svg xmlns="http://www.w3.org/2000/svg" width="130.887" height="34.761" viewBox="0 0 130.887 34.761">
    <defs>
        <clipPath id="o13phwfbca">
            <path data-name="사각형 1539" style="fill:none" d="M0 0h130.887v34.761H0z"/>
        </clipPath>
    </defs>
    <g data-name="그룹 752" style="clip-path:url(#o13phwfbca)">
        <path data-name="패스 496" d="M17.377 34.761A17.381 17.381 0 1 0 0 17.377a17.383 17.383 0 0 0 17.377 17.384" style="fill:#b51b33"/>
        <path data-name="패스 497" d="M16.687 9.752v15.237h4.85v-1.362h-3.46V9.752z" style="fill:#fff"/>
        <path data-name="패스 498" d="M11.83 13.912a2.083 2.083 0 1 0-2.081-2.085 2.085 2.085 0 0 0 2.081 2.085" style="fill:#fff"/>
        <path data-name="패스 499" d="M18.077 2.838c-.182-.01-.525-.014-.7-.014a14.553 14.553 0 1 0 14.554 14.551v-.663H21.54v1.354h9v.2A13.191 13.191 0 1 1 17.377 4.184c.159 0 .533 0 .7.012z" style="fill:#fff"/>
        <path data-name="패스 500" d="M47.9 5.919h-5.229V28.56h16.063v-4.411H47.9z" style="fill:#6b6c6c"/>
        <path data-name="패스 501" d="M70.242 19.929H74.5v3.959a12 12 0 0 1-3.774.6c-4.707 0-6.277-2.391-6.277-7.249 0-4.63 1.5-7.359 6.2-7.359A6.058 6.058 0 0 1 76 12.27l3.252-2.987c-1.982-2.839-5.457-3.7-8.707-3.7-7.323 0-11.172 3.995-11.172 11.618 0 7.584 3.476 11.694 11.135 11.694 3.512 0 6.95-.9 8.817-2.2V15.708h-9.083z" style="fill:#6b6c6c"/>
        <path data-name="패스 502" d="M89.475 21.828h-5.53v2.985h8.83a15.355 15.355 0 0 0 6.851-1.468v-3.033a13.727 13.727 0 0 1-6.312 1.516v-2.715h-3.839zm9.032-11.813H83.881v2.958h14.626zm-5.071 5.527a1.808 1.808 0 0 1-2.079 1.933c-1.491 0-2.128-.806-2.128-1.933 0-1.149.637-1.909 2.128-1.909 1.469 0 2.079.76 2.079 1.909m1.271-9.687h-2.641a14.656 14.656 0 0 1-4.453-.636L87.052 8.3a16.485 16.485 0 0 0 4.061.515h3.594zm12.378 6.727h-3.692V5.66h-3.914v22.822h3.421a24.964 24.964 0 0 0 .489-5.162v-7.459h3.692zm-21.571 3.082c0 2.739 1.686 4.453 5.795 4.453 4.134 0 5.82-1.714 5.82-4.453 0-2.568-2.225-4.377-5.82-4.377-3.571 0-5.795 1.809-5.795 4.377m31.82-.685c0 .98-.634 1.761-2.078 1.761-1.515 0-2.1-.781-2.1-1.761 0-.954.589-1.738 2.1-1.738 1.444 0 2.078.784 2.078 1.738m13.553-4.208h-3.718V5.66h-3.892v13.723h3.892v-5.431h3.718zm-3.718 9.737H112v3.009h11.273V28.6h3.452a19.127 19.127 0 0 0 .44-4.111zm-17.515-5.43c0 2.568 1.616 4.3 5.6 4.3 4.012 0 5.625-1.762 5.625-4.3 0-2.348-2.151-4.207-5.625-4.207-3.424 0-5.6 1.859-5.6 4.207m12.623-5.309h-14.311v2.888h14.311zm-3.547-4.06h-2.667a14.849 14.849 0 0 1-4.5-.66l-.538 3.106a13.588 13.588 0 0 0 3.841.513h3.864z" style="fill:#6b6c6c"/>
    </g>
</svg>
