<svg xmlns="http://www.w3.org/2000/svg" width="124.921" height="24.57" viewBox="0 0 124.921 24.57">
    <defs>
        <clipPath id="a6zkrb22va">
            <path data-name="사각형 1540" style="fill:none" d="M0 0h124.921v24.57H0z"/>
        </clipPath>
    </defs>
    <g data-name="그룹 753" style="clip-path:url(#a6zkrb22va)">
        <path data-name="패스 503" d="M130.894 13.005a13.6 13.6 0 0 1-4.261-4.371 13.658 13.658 0 0 1-1.861 2.927 9.893 9.893 0 0 1-2.5 2.037l-2.217-2.127a8.962 8.962 0 0 0 3.621-3.171 8.257 8.257 0 0 0 1.378-4.55V.934h2.939v2.814a7.447 7.447 0 0 0 1.353 4.229 7.247 7.247 0 0 0 3.433 2.736z" transform="translate(-40.759 -.317)" style="fill:#7d7269"/>
        <path data-name="패스 504" d="M159.508 11.935V1.05h11.3v1.791h5.2V0h3.061v13.519h-3.061v-3.4h-5.2v1.814zm8.521-8.688h-5.521v6.491h5.521zm2.781 4.5h5.2V5.378h-5.2z" transform="translate(-54.152)" style="fill:#7d7269"/>
        <path data-name="패스 505" d="M142.628 22.664a9.106 9.106 0 0 0-5.546-1.5 9.214 9.214 0 0 0-5.565 1.483 4.552 4.552 0 0 0-2.014 3.826 4.505 4.505 0 0 0 2.019 3.826 9.366 9.366 0 0 0 5.56 1.454 9.273 9.273 0 0 0 5.54-1.461 4.512 4.512 0 0 0 2.014-3.819 4.568 4.568 0 0 0-2.007-3.813m-2.111 5.591a9.078 9.078 0 0 1-6.89-.007 1.93 1.93 0 0 1-.012-3.536 9.047 9.047 0 0 1 6.913-.008 1.945 1.945 0 0 1-.011 3.551" transform="translate(-43.965 -7.187)" style="fill:#7d7269"/>
        <path data-name="패스 506" d="M178.863 22.664a9.107 9.107 0 0 0-5.547-1.5 9.214 9.214 0 0 0-5.565 1.483 4.551 4.551 0 0 0-2.013 3.826 4.5 4.5 0 0 0 2.019 3.826 11.294 11.294 0 0 0 11.1-.007 4.513 4.513 0 0 0 2.013-3.819 4.568 4.568 0 0 0-2.007-3.813m-2.112 5.591a9.077 9.077 0 0 1-6.889-.007 1.93 1.93 0 0 1-.012-3.536 9.047 9.047 0 0 1 6.913-.008 1.945 1.945 0 0 1-.012 3.551" transform="translate(-56.267 -7.187)" style="fill:#7d7269"/>
        <path data-name="패스 507" d="M145.633 13.736v-6.1H143.4v5.328h-3.011V0h3.011v5.05h2.235V0h3.036v13.736z" transform="translate(-47.661)" style="fill:#7d7269"/>
        <path data-name="패스 508" d="M100.228 19.2H84.93V.085h-5.114V23.3H103.2z" transform="translate(-27.097 -.029)" style="fill:#de040a"/>
        <path data-name="패스 509" d="M16.867.088C16.6.459.268 22.932 0 23.3h5.71l4.583-6.308h7.541v-4.047h-4.6l6.215-8.555V23.3h5.11V.088z" transform="translate(0 -.03)" style="fill:#de040a"/>
        <path data-name="패스 510" d="M63.251 12.344a6.393 6.393 0 0 0-2.409-2.159 5.172 5.172 0 0 0 1.666-4.047 5.558 5.558 0 0 0-1.928-4.407A7.483 7.483 0 0 0 55.533.088H43.211V23.3h12.814a9.021 9.021 0 0 0 6.034-1.931 6.51 6.51 0 0 0 2.282-5.176 6.916 6.916 0 0 0-1.09-3.847M48.319 4.182h6.25a3.265 3.265 0 0 1 2.147.669 2.176 2.176 0 0 1 .728 1.749 2.2 2.2 0 0 1-.7 1.719 2.831 2.831 0 0 1-1.972.653h-6.453zM58.1 18.367a4.331 4.331 0 0 1-2.793.833h-6.988v-6.187h6.859a4.4 4.4 0 0 1 2.884.875 2.822 2.822 0 0 1 1.011 2.273 2.7 2.7 0 0 1-.971 2.206" transform="translate(-14.67 -.03)" style="fill:#de040a"/>
    </g>
</svg>
