<svg xmlns="http://www.w3.org/2000/svg" width="116.395" height="34.057" viewBox="0 0 116.395 34.057">
    <defs>
        <clipPath id="66qh13988a">
            <path data-name="사각형 1547" style="fill:none" d="M0 0h116.395v34.057H0z"/>
        </clipPath>
    </defs>
    <g data-name="그룹 760" style="clip-path:url(#66qh13988a)">
        <path data-name="패스 588" d="M35.051 20.04c-1.711 4.26-4.583 5.46-4.583 5.46a16.139 16.139 0 0 0 3.287-18.417c-1.246-2.208.343-3.174.343-3.174-3.63.91-2.5 3.911-2.5 3.911a15.035 15.035 0 0 1 .835 10.049l-1.2-.67.021-.028S34.1 6.012 22.543 2.1L22.537 0H20.1v13.827l11.334 6.461c-.2.42-.424.812-.653 1.187L19.4 14.88 7.963 21.475a16.724 16.724 0 0 1-.653-1.187l11.334-6.461V0h-2.438L16.2 2.1C4.65 6.012 7.481 17.17 7.481 17.17l.019.03-1.2.67a15.025 15.025 0 0 1 .84-10.051s1.135-3-2.493-3.911c0 0 1.585.966.338 3.174A16.142 16.142 0 0 0 8.275 25.5S5.4 24.3 3.69 20.04A3.326 3.326 0 0 0 0 18.416l1.63 2.347a14.162 14.162 0 0 0 11.914 8.987v4.307h4.645v-6.346A12.9 12.9 0 0 1 9.5 23.529l1.167-.679a14.159 14.159 0 0 0 8.678 3.6h.055a14.175 14.175 0 0 0 8.68-3.6l1.163.679a12.9 12.9 0 0 1-8.691 4.183v6.346H25.2V29.75a14.157 14.157 0 0 0 11.912-8.987 3.717 3.717 0 0 1 1.632-2.347 3.328 3.328 0 0 0-3.692 1.623M29 15.923l-.013.011-6.391-3.579-.036-7.65h.036S30.3 6.8 29 15.923M16.15 4.705h.036l-.036 7.65-6.4 3.579v-.011c-1.3-9.126 6.4-11.218 6.4-11.218m9.614 16.806-.056-.032a10.093 10.093 0 0 1-6.337 2.394 10.093 10.093 0 0 1-6.337-2.394l-.056.032V21.5l6.41-3.731 6.377 3.731z" transform="translate(0 -.001)" style="fill:#0055a6"/>
        <path data-name="패스 589" d="M47.586 2.834A1.705 1.705 0 0 1 49.33 1.1l4.5.009.024 28.414s.079 2.825-2.649 2.825h-22.75a2.582 2.582 0 0 1-2.48-2.846V19.019H30.5v9.822h18.83l.006-11.641-6.65-.028s-6.037.077-9.074-5.213a11.783 11.783 0 0 1-3.761 3.44 14.224 14.224 0 0 1-5.281 1.664c-.805.043-2.758.263-2.945-1.21a1.494 1.494 0 0 1 1.133-1.848A12.153 12.153 0 0 0 26 13.4a9.472 9.472 0 0 0 3.551-2.264c1.619-1.662 1.928-2.669 1.8-6.035 0 0-1.756.071-1.756-1.589a1.564 1.564 0 0 1 1.733-1.555l4.613-.026v6.262s.3 4.907 7.492 5.528l5.9.015V4.571a1.705 1.705 0 0 1-1.743-1.737" transform="translate(24.664 1.252)" style="fill:#0055a6"/>
        <path data-name="패스 590" d="M64.934 1.1a1.828 1.828 0 0 0-1.7 1.769 1.75 1.75 0 0 0 1.7 1.7v1.938H60.88a1.569 1.569 0 0 0-1.236 1.638A1.763 1.763 0 0 0 60.88 9.9h4.054v2.14H60.88a1.574 1.574 0 0 0-1.236 1.643 1.762 1.762 0 0 0 1.236 1.75h4.054v6.509H45.5v-2.733h-4.4v10.475a2.658 2.658 0 0 0 2.639 2.636h23.146c2.561 0 2.523-2.746 2.523-2.746L69.477 1.1zM45.5 25.448h19.434v3.392H45.5z" transform="translate(46.918 1.252)" style="fill:#0055a6"/>
        <path data-name="패스 591" d="M53.027 2.008V.3h-4.489v1.708H41.3a1.81 1.81 0 0 0-1.656 1.816A1.613 1.613 0 0 0 41.3 5.482h19.76V2.008z" transform="translate(45.258 .341)" style="fill:#0055a6"/>
        <path data-name="패스 592" d="M55.242 3.239h-9.933a5.435 5.435 0 0 0-5.436 5.438v.807a5.433 5.433 0 0 0 5.436 5.433h9.933a5.434 5.434 0 0 0 5.433-5.433v-.807a5.436 5.436 0 0 0-5.433-5.438m1 6a2.175 2.175 0 0 1-2.178 2.174h-7.588A2.174 2.174 0 0 1 44.3 9.242v-.323a2.174 2.174 0 0 1 2.176-2.174h7.592a2.175 2.175 0 0 1 2.178 2.174z" transform="translate(45.523 3.697)" style="fill:#0055a6"/>
    </g>
</svg>
