<svg xmlns="http://www.w3.org/2000/svg" width="148.646" height="34.234" viewBox="0 0 148.646 34.234">
    <defs>
        <clipPath id="0rfa79jgza">
            <path data-name="사각형 1545" style="fill:none" d="M0 0h148.646v34.234H0z"/>
        </clipPath>
    </defs>
    <g data-name="그룹 755" style="clip-path:url(#0rfa79jgza)">
        <path data-name="패스 551" d="m92.433 18.758-1.188-.127s-.847-.045-1.1-.045l-3.65.135s-1.788.074-2.04-.642L84.2 16s-.088-.724 1.36-.339a27.572 27.572 0 0 0 3.4.169 6.72 6.72 0 0 0 2.376.209s1.7.048 1.868-.934c0 0 .339-.848-.084-1.312 0 0-.084-.6-1.784-1.319a4.814 4.814 0 0 1-1.7-.088 11.225 11.225 0 0 0-1.529.13l-4.16.126a2.092 2.092 0 0 1-1.612.086l-.937-.039a2.033 2.033 0 0 1-1.356-.127l-.426-.3a.754.754 0 0 1 .171-1.229l8.405-.213a6.026 6.026 0 0 1 1.358.173l1.782.12 1.275-.12a1.642 1.642 0 0 0 1.187-1.15 2.227 2.227 0 0 0-.168-1.611s.257-.809-2.463-1.364c0 0-1.275-.166-2.208-.34a6.558 6.558 0 0 1-1.19.3 5.134 5.134 0 0 1-1.865.432l-5.6.081a5.419 5.419 0 0 1-1.783-.212 7.419 7.419 0 0 0-1.107-.217 9.358 9.358 0 0 1-.932-.209l-1.19.166s-.341-.081-1.523.677a1.8 1.8 0 0 0-1.108.853s-.254.21 0 1.316l.769.552.756.555a14.841 14.841 0 0 0 .175 2.84 2.1 2.1 0 0 0 1.441 1.78l1.188.22h4.163l-.339.378s-.426.214 0 .722l.506.683s.168.424-.168.586a.4.4 0 0 1-.253.473l-.34.255-5.014-.214-.758-.3-.765.088-.34.511-.344.131s-.421.379-.337.722c0 0 .168.974.429 1.018a1.236 1.236 0 0 0 1.015.767l6.115-.131a5.492 5.492 0 0 1 1.359-.3H84.2l2.55.258a23.568 23.568 0 0 0 2.377.417 11.749 11.749 0 0 0 2.119.3 8.378 8.378 0 0 0 1.788-.085 1.059 1.059 0 0 0 .931-.89 2.708 2.708 0 0 0-.168-1.314 2.19 2.19 0 0 0-1.362-.98" transform="translate(-28.759 -2.588)" style="fill:#1a1311"/>
        <path data-name="패스 552" d="M91.678 35.16s-.257-.593-1.528-1.061a2.3 2.3 0 0 0-1.274-.548 1.323 1.323 0 0 1-.938-.595l-.253-.425s-.083-.257-.76-.762a4.714 4.714 0 0 0-1.7-.093s-.932.093-.848.855c0 0 .088.8-.084 1.019a2.424 2.424 0 0 1-.6.587 2.736 2.736 0 0 0-.936.9 2.2 2.2 0 0 0-.681 1.142 2.68 2.68 0 0 0-.166 2.173s.087.206.424 1.226a3.049 3.049 0 0 0 1.444 1.78l.847.6 1.016.636s.173.252 1.02.3l1.449-.094a4.319 4.319 0 0 0 1.95-1.02s1.106-.764 1.106-1.016a10.135 10.135 0 0 0 1.1-1.275 1.086 1.086 0 0 0 .34-.889s.17-1.913-.171-2.245a5.233 5.233 0 0 0-.761-1.194m-2.8 2.376-.341.463a4.668 4.668 0 0 1-.679.461c-.593.812-1.359-.077-1.359-.077a1.906 1.906 0 0 1-.928-1.019 1.177 1.177 0 0 1 0-1.151 1.872 1.872 0 0 1 1.185-.973h.85l.422.422c.427.086.764.806.764.806.344.342.089 1.061.089 1.061" transform="translate(-32.413 -12.537)" style="fill:#1a1311"/>
        <path data-name="패스 553" d="M140.14 14.255s.243-.463-1.371-.42c0 0-1.034.043-1.12-.177 0 0-.762.22-.848-1.139 0-.387.086-2.247.086-2.247s.257-.467 0-.765a2.44 2.44 0 0 1-.258-1.185 1.138 1.138 0 0 0-1.187-1.15 3.253 3.253 0 0 0-1.661-.215s-.594.215-.508.721a1.8 1.8 0 0 1-.511 1.111s-.257.8.087 1.057a14.5 14.5 0 0 1 .338 3.014.761.761 0 0 1 0 .464 10.214 10.214 0 0 0 .086 2.847l.34 3.86a2.014 2.014 0 0 1 0 .8l.084 3.526s.069 1.31-.951.8c0 0-.676-.286-3.9-.033l-2.881-.044s-1.447-.043-1.191-.976c0 0-.171-1.273.256-1.233a4.461 4.461 0 0 0 1.27-1.022l.509-.547a7.037 7.037 0 0 0 .684-1.4 3.547 3.547 0 0 0 0-1.738 5.682 5.682 0 0 0-.769-1.194 4.409 4.409 0 0 0-1.1-1.02 3.812 3.812 0 0 0-1.018-.764s-1.1-.932.171-1.138l.761.083.848-.044a4.573 4.573 0 0 0 .681-.039 1.527 1.527 0 0 0 1.02-.172 1.594 1.594 0 0 0 .844-.637.625.625 0 0 0 .429-.6 3.628 3.628 0 0 0-.256-1.366 1.678 1.678 0 0 0-1.274-.85 4.142 4.142 0 0 0-1.863-.257s-1.1.257-.847-1.108a1.262 1.262 0 0 0-.43-1.1 2.339 2.339 0 0 0-1.1-.427 4.385 4.385 0 0 0-2.29 0 1.065 1.065 0 0 0-.849 1.016l-.087.684s.427.764 0 1.018c0 0-.76.045-1.528.084a5.268 5.268 0 0 0-1.354.176s-.936.373-.936.717c0 0-.427.4-.087 1.378a.988.988 0 0 0 .934.974s.257.253 1.275.3l1.869.123s.508.3-.086.68a2.3 2.3 0 0 0-1.274.893s-.255.123-.931 1.186l-.513 1.148a2.212 2.212 0 0 0 0 1.531 4.063 4.063 0 0 0 1.358 2.67 10.954 10.954 0 0 0 1.36 1.1s.849 1.406 0 1.827a19.222 19.222 0 0 1-2.294.167 1.362 1.362 0 0 0-1.018.938s-.168.547 0 .767c0 0 .168 1.288 1.189 1.459.17.039 1.19.291 1.19.291l.846-.082.936-.257 5.175-.168 2.633.132 2.887.036a1.481 1.481 0 0 1 1.268.271s.361.054.278 1.074a1.722 1.722 0 0 1-.174 1.018.842.842 0 0 0 0 .675s.341 1.187.933 1.315c0 0 1.922.511 2.684-.211 0 0 .508-.171.339-1.147l-.339-9.8s0-1.193.171-1.273l.088-2s-.173-.845.677-.845a4.034 4.034 0 0 0 1.625-.339s.861-.045.946-1.274a1.7 1.7 0 0 0-.339-1.53m-16.573 5.017a1.441 1.441 0 0 1-1.1.885c-.846-.085-.929-.552-.929-.552-.341-.212-.341-1.274-.341-1.274a1.364 1.364 0 0 1 1.105-.931 1.709 1.709 0 0 1 .846.215 1.246 1.246 0 0 1 .512.969z" transform="translate(-46.114 -2.753)" style="fill:#1a1311"/>
        <path data-name="패스 554" d="M165.449 19.508a4.116 4.116 0 0 0 2.778 1.042 8.694 8.694 0 0 0 1.307.038l.7-.131.348-.131s-.086.089.784-.391l.171-.257.258-.17.267-.138.26-.132.088-.084a.788.788 0 0 1 .61-.394s1.741-1.522 1.911-2.654c0 0 .436-2.352-.258-3.216 0 0-.264-1.7-1.043-2.178l-.787-1.088a5.745 5.745 0 0 0-.955-.646l-.7-.483a7 7 0 0 0-1.309-.564 10.386 10.386 0 0 0-3.044.261 4.589 4.589 0 0 0-2 1.261 4.815 4.815 0 0 0-1.831 2.826 8.282 8.282 0 0 0 .092 4.05 4.9 4.9 0 0 0 2.351 3.177m1.3-6.617a2.138 2.138 0 0 1 2.091-1.179l1.3.3a2.193 2.193 0 0 1 1.132 1.182 2.156 2.156 0 0 1 .092 1.994 1.787 1.787 0 0 1-.613 1.14 5.571 5.571 0 0 1-1.39.557 1.907 1.907 0 0 1-1.391-.264c-1.221-.555-1.221-1.12-1.221-1.12a3.721 3.721 0 0 1 0-2.614" transform="translate(-64.542 -3.136)" style="fill:#1a1311"/>
        <path data-name="패스 555" d="M196.464 15.666s0-.527-1.741-.433l-1.739.086s-.875.039-.875-.439c0 0-.256-.69.268-.91 0 0-.177-.26 1.738 0 0 0 2.263.433 2.436-.3 0 0 .432-.09.432-1.225 0 0 .35-1.047-.173-1.388a1.733 1.733 0 0 0-1.65-.827l-2.611.044s-.78.172-.78-1.129c0 0 .085-1.091-.526-1.4 0 0-1.129-.908-1.826-.523a1.459 1.459 0 0 0-1.044 1.486l.084 5.436v1a7.66 7.66 0 0 1 .175 1.307s-.432.352 0 1.4l.179 1.3a1.158 1.158 0 0 0 1.213 1.092s1.83.216 1.653-.878c0 0 0-1.041.7-.825l3.389-.171a1.085 1.085 0 0 0 1.134-1.394s.258-1-.436-1.3" transform="translate(-74.68 -2.825)" style="fill:#1a1311"/>
        <path data-name="패스 556" d="M184.878 35.833a1.757 1.757 0 0 0-1.218-1.779 6.18 6.18 0 0 0-1.914-.478l-4 .215a2.923 2.923 0 0 1-1.13.047l-1.394.045a9.387 9.387 0 0 0-1.479.042l-3.655-.135s-1.044.135-1.394-.384l-.523-.309-.867.089a2.482 2.482 0 0 0-1.564 1.521s-.611.6.173 1.432c0 0-.09.658 1.74.87l2.783-.168s1.041-.043 3.134-.3l3.305-.13h1.913a1.326 1.326 0 0 1 1.307 1.347l.174 3.479a1.676 1.676 0 0 0 1.829 1.872 9.686 9.686 0 0 0 1.825-.132 1.324 1.324 0 0 0 1.045-1.479 8.763 8.763 0 0 0 .086-2.869s-.086-1.919-.174-2.793" transform="translate(-65.617 -13.122)" style="fill:#1a1311"/>
        <path data-name="패스 557" d="M223.126 15.535a17.019 17.019 0 0 1 1.924-.042 2.535 2.535 0 0 1 1.552.185 3.839 3.839 0 0 0 1.74.321l1.468-.094s1.373-.18 1.373-.781c0-.317-.093-.365-.093-.317a1.322 1.322 0 0 0-.55-1.468s-.55-.683-2.378-.5h-1.194s-.821 0-.639-.6c0 0-.182-.776.733-.733h2.927s1.194.049 1.373-.453a2.006 2.006 0 0 0 .277-.917s0-1.375-1.008-1.468c0 0 .092-.318-1.833-.634a3.089 3.089 0 0 1-1.736-.231l-1.643-.144a1.743 1.743 0 0 1-1.1.416l-4.58.184-2.56-.091s-.643-.094-.732-.366l-.826-.275s-.275-.237-1.1-.1l-1.008.327s-1.378.133-3.2.453a1.147 1.147 0 0 0-.92 1.1s-.179.371.185 1.1c0 0 0 .913 1.369.868h2.57s1.008.132.182 1.826l-2.2.1s-.825-.229-.915.775a1.486 1.486 0 0 0 .179 1.328.778.778 0 0 0 .917.6h1.646s1.007.094 1.377.141h1.1s.548-.141.913-.186c0 0 .552-.231.823-.366 0 0 4.4-.461 5.588.042m-.641-3.335c0 .634-.365.634-.365.634l-2.659.095c-1.734 0-1.373-.226-1.464-.321a.959.959 0 0 1 0-1.326 9.73 9.73 0 0 1 1.191-.228 5.214 5.214 0 0 0 1.372.087l1.832.045a2.182 2.182 0 0 1 .093 1.015" transform="translate(-82.994 -2.928)" style="fill:#1a1311"/>
        <path data-name="패스 558" d="m217.946 38.334 4.117-.137s2.381.044 2.652.594a4.676 4.676 0 0 0 1.557.462l1.466.272s1.279-.272 1.469-.6c0 0 1-.461 1.186-.965a1.953 1.953 0 0 0 .273-.776l.092-1.094.184-2.473a6.573 6.573 0 0 0 .092-1.925s0-.918-1.827-1c0 0-2.112-.091-3.027-.14l-3.752-.133-.916-.05s-1.007-.5-.276-.916c0 0 .369.042.276-.826 0 0-.184-1.1.185-1.1l.456-.045 5.312.142a6.513 6.513 0 0 1 1.463.134l.368.14.824.049a.784.784 0 0 0 .823-.741 2 2 0 0 1 .275-.778s.185-.6-.091-.635c0 0-.092-.689-1.19-.508l-2.106-.327-6.133-.222a2.971 2.971 0 0 1-1.834.042h-1.557a4.831 4.831 0 0 1-1.373.179 6.451 6.451 0 0 1-2.287-.179l-2.2-.094h-1.187s-1.194.094-1.28 1.108a1.11 1.11 0 0 0 .181 1.139s0 .646.913.646l3.023-.135 3.573.039s.455-.363.548.371a3.592 3.592 0 0 0 .276 1.141 5.979 5.979 0 0 1 .182 1.1l-1.829.091a2.373 2.373 0 0 1-1.745.039s-.177-.634-1.464-.552a1.375 1.375 0 0 0-1.19.1s-1.092.415-1.092 1.191v1.462c0 .089.911.6 1.092 1.335a6.188 6.188 0 0 1 .094 1.73l.093 1.285s-.093 1.146.365 1.284a1.848 1.848 0 0 0 1.19 1.279l1.1.276.369-.051 1.009-.311a2.887 2.887 0 0 1 1.284-.919m5.4-5.083c1.647-.139 2.015.183 2.015.183.459.136.549.958.549.958.091 1.148-.917.969-.917.969l-2.106-.23-5.218.087c-1.006.094-.917-.636-.917-.636-.183-1.148.094-1.148.094-1.148z" transform="translate(-83.212 -9.786)" style="fill:#1a1311"/>
        <path data-name="패스 559" d="M36.71 10.573a.614.614 0 0 0-.327-.278l-3.435-1.359c-.01-.04-.744-3.621-.744-3.621a.608.608 0 0 0-.218-.368.583.583 0 0 0-.4-.147L27.9 4.7c-.023-.033-1.938-3.148-1.938-3.148a.591.591 0 0 0-.33-.27.6.6 0 0 0-.423 0s-3.474 1.144-3.509 1.16c-.032-.028-2.9-2.3-2.9-2.3A.634.634 0 0 0 18.4 0a.627.627 0 0 0-.4.144s-2.868 2.271-2.9 2.3c-.04-.016-3.508-1.168-3.508-1.168a.612.612 0 0 0-.427 0 .576.576 0 0 0-.324.27L8.9 4.7l-3.7.1a.6.6 0 0 0-.4.147.61.61 0 0 0-.215.368l-.738 3.621C3.81 8.949.411 10.3.411 10.3a.633.633 0 0 0-.411.584.889.889 0 0 0 .01.109l.634 4.3L11.3 19.187l5.847 2.046-4.046 1.385a.794.794 0 0 0-.466.348.4.4 0 0 0-.046.19.5.5 0 0 0 .041.2 6.1 6.1 0 0 0 2.24 2.775 6.288 6.288 0 0 0 7.05 0 6.1 6.1 0 0 0 2.24-2.775.531.531 0 0 0 .042-.2.4.4 0 0 0-.045-.19.831.831 0 0 0-.471-.352l-4.044-1.38 5.847-2.046 10.66-3.894.634-4.3a.576.576 0 0 0 .01-.109.615.615 0 0 0-.085-.311M25.195 2.583l2.258 2.781c-.024.045-4.905 8.639-4.949 8.711l-1.172-.881 3.862-10.61M21.793 14.6c-.028.053-2.59 4.537-2.791 4.891.071-.4.992-5.482 1-5.539.056 0 .809-.021.809-.021a.651.651 0 0 1 .37.135s.564.5.608.534M18.437 1.375c.108.067 3.029 1.814 3.073 1.843-.01.049-1.657 9.793-1.669 9.879-.078-.023-1.355-.413-1.4-.429zM18.2 13.537a.634.634 0 0 1 .4 0l.754.293c-.011.061-.882 5.15-.953 5.552-.068-.4-.944-5.491-.952-5.552.054-.02.755-.3.755-.3m-.4 5.952c-.2-.354-2.763-4.838-2.791-4.891l.6-.534a.663.663 0 0 1 .373-.135s.751.018.809.021c.01.057.931 5.138 1 5.539M15.19 3.234c.008.051 1.8 9.772 1.809 9.854-.08 0-1.411.073-1.466.074-.021-.046-3.816-10.483-3.863-10.607l3.519.678M9.255 5.412c.028.045 5.031 8.569 5.072 8.639-.07.033-1.3.555-1.347.575-.037-.041-7.175-8.548-7.258-8.649l3.534-.566m1.819 11.462c-.046-.028-9.663-5.58-9.778-5.645.113-.065 3.085-1.717 3.131-1.741.038.034 7.656 6.33 7.722 6.385-.059.053-1.036.964-1.075 1m.515 1.439.123-.8a.624.624 0 0 1 .2-.342l.631-.506 4.332 3.6c-.383-.142-5.227-1.933-5.284-1.952m1.38-2.156.387-.71a.645.645 0 0 1 .3-.255s.712-.24.767-.261l2.84 4.871c-.312-.268-4.25-3.6-4.3-3.642m1.077 8.19a4.928 4.928 0 0 1-.33-.5 5.075 5.075 0 0 1-.266-.532c.068-.028 3.109-1.185 3.5-1.331-.319.263-2.841 2.315-2.9 2.362m.877.941a4.55 4.55 0 0 1-.432-.411l2.828-2.447-1.916 3.212a4.782 4.782 0 0 1-.48-.354m1.625.938a4.293 4.293 0 0 1-.546-.24l1.823-3.262c-.079.4-.691 3.6-.7 3.672a5.26 5.26 0 0 1-.572-.17m1.848.328a4.874 4.874 0 0 1-.594-.038c.013-.077.53-3.287.594-3.693.068.406.585 3.616.594 3.693a4.86 4.86 0 0 1-.594.038m1.85-.328a4.976 4.976 0 0 1-.573.17c-.013-.072-.624-3.267-.7-3.672.2.362 1.786 3.2 1.822 3.262a4.321 4.321 0 0 1-.546.24m3.094-2.909a3.711 3.711 0 0 1-.262.532 4.895 4.895 0 0 1-.33.5l-2.9-2.362c.387.146 3.426 1.3 3.491 1.331M22.3 24.876a4.265 4.265 0 0 1-.431.411 4.706 4.706 0 0 1-.478.354c-.038-.063-1.706-2.857-1.919-3.21.313.27 2.773 2.4 2.828 2.446M19.529 19.8l2.839-4.868c.054.021.768.261.768.261a.625.625 0 0 1 .3.255s.36.658.386.71c-.043.039-3.984 3.374-4.3 3.642m.395.467 4.33-3.6.632.506a.633.633 0 0 1 .2.342l.122.8-5.282 1.952m4.752-4.36c-.042-.068-.771-1.186-.8-1.228.036-.045 7.173-8.548 7.26-8.65.04.12 1.153 3.336 1.168 3.385-.036.034-7.561 6.439-7.627 6.493m10.8-1.031c-.047.018-9.31 3.465-9.388 3.5l-.331-1.432c.048-.025 9.663-5.579 9.779-5.644 0 .127-.059 3.53-.06 3.58" style="fill:#dc000c"/>
        <path data-name="패스 560" d="M5.582 52.346c-.489-.189-.576-.32-.576-.527 0-.19.156-.382.506-.382a1.068 1.068 0 0 1 .55.135l.112.073.148-.458.03-.074-.071-.045a1.493 1.493 0 0 0-.753-.17 1.016 1.016 0 0 0-1.136.969c0 .452.3.78.911 1 .449.167.539.331.539.541 0 .282-.214.451-.573.451a1.278 1.278 0 0 1-.683-.194l-.108-.065-.147.465-.029.073.066.042a1.765 1.765 0 0 0 .873.229c.9 0 1.216-.554 1.216-1.029s-.261-.789-.875-1.031" transform="translate(-1.706 -20.178)" style="fill:#dc000c"/>
        <path data-name="사각형 1544" transform="translate(6.335 30.719)" style="fill:#dc000c" d="M0 0h.629v3.509H0z"/>
        <path data-name="패스 561" d="M16.552 52.387c0 .345.007.637.022.915a9.815 9.815 0 0 0-.4-.682l-1.054-1.681-.031-.041h-.619v3.508h.6v-1.514c0-.385 0-.678-.011-.947.117.222.259.464.429.733l1.051 1.678.029.051h.587V50.9h-.6z" transform="translate(-5.736 -20.178)" style="fill:#dc000c"/>
        <path data-name="패스 562" d="M22.945 51.449a1.3 1.3 0 0 1 .6.127l.1.046.138-.442.032-.077-.078-.045a1.865 1.865 0 0 0-.807-.15 1.683 1.683 0 0 0-1.773 1.782 1.6 1.6 0 0 0 1.681 1.727 2.07 2.07 0 0 0 .889-.165l.066-.034-.125-.53-.11.056a1.554 1.554 0 0 1-.636.124 1.067 1.067 0 0 1-1.129-1.191 1.105 1.105 0 0 1 1.152-1.226" transform="translate(-8.387 -20.182)" style="fill:#dc000c"/>
        <path data-name="패스 563" d="M28.534 52.851h1.283V52.3h-1.283v-.85h1.36v-.55h-1.987v3.508h2.062v-.558h-1.435z" transform="translate(-11.064 -20.179)" style="fill:#dc000c"/>
        <path data-name="패스 564" d="m36.61 51.271-.066.034.1.394.03.126.515-.281v2.863h.6V50.9h-.459z" transform="translate(-14.488 -20.178)" style="fill:#dc000c"/>
        <path data-name="패스 565" d="M42.9 52.535a.866.866 0 0 0 .436-.749.924.924 0 0 0-1.036-.886.993.993 0 0 0-1.089.952.853.853 0 0 0 .426.72.985.985 0 0 0-.545.873 1.047 1.047 0 0 0 1.173.963 1.08 1.08 0 0 0 1.188-1.031.937.937 0 0 0-.551-.84m-.621 1.36h-.006a.555.555 0 0 1-.411-.164.461.461 0 0 1-.126-.344.6.6 0 0 1 .479-.564c.424.126.606.3.606.6a.484.484 0 0 1-.541.475m.057-1.591c-.355-.1-.511-.249-.507-.485a.409.409 0 0 1 .457-.415h.011a.4.4 0 0 1 .437.422.517.517 0 0 1-.395.477" transform="translate(-16.292 -20.178)" style="fill:#dc000c"/>
        <path data-name="패스 566" d="M48.067 50.9a1.2 1.2 0 0 0-1.2 1.228 1.03 1.03 0 0 0 1.044 1.085 1.057 1.057 0 0 0 .593-.17 1.15 1.15 0 0 1-.311.508 1.026 1.026 0 0 1-.612.285 2.235 2.235 0 0 1-.334.019l-.1-.007v.559h.127a3.331 3.331 0 0 0 .383-.027 1.7 1.7 0 0 0 .986-.458 2.086 2.086 0 0 0 .582-1.576c0-.891-.444-1.446-1.158-1.446m.5 1.5a.642.642 0 0 1-.549.284.523.523 0 0 1-.518-.584c0-.394.222-.679.532-.679a.465.465 0 0 1 .342.134 1.036 1.036 0 0 1 .216.733.255.255 0 0 1-.024.11" transform="translate(-18.582 -20.178)" style="fill:#dc000c"/>
        <path data-name="패스 567" d="M52.742 51.465h1.564l-1.366 2.8-.068.143h.677l1.467-3.07.011-.025V50.9h-2.285z" transform="translate(-20.909 -20.179)" style="fill:#dc000c"/>
    </g>
</svg>
