<svg xmlns="http://www.w3.org/2000/svg" width="142.736" height="31.516" viewBox="0 0 142.736 31.516">
    <g data-name="그룹 21">
        <path data-name="패스 62" d="M62.611 4.136a3.158 3.158 0 0 1-1.729-1.227 3.261 3.261 0 0 1-1.759 1.408L58.64 3.7c1.59-.574 1.825-1.457 1.825-1.741h-1.372v-.664h3.548v.665h-1.378a2.242 2.242 0 0 0 1.729 1.54l-.381.641zm-2.768 3.07V4.71h4.509v2.5zm.024-6.461V.08h2.049v.665h-2.049zM63.608 5.4H60.58v1.123h3.028zm.743-2.877v1.818h-.743V.08h.743V1.8h.943v.719z" transform="translate(-23.197 -.032)" style="fill:#004b9d"/>
        <path data-name="패스 63" d="M73.9 7.314h-.96V6.281h.96zm-.882-3.971V.2h.81v3.143L73.6 5.477h-.351z" transform="translate(-28.854 -.079)" style="fill:#004b9d"/>
        <path data-name="패스 64" d="M84.266 3.78v-.64h2.859V2.4h.768v.74h2.859v.64H84.26zm6.062-1.517-.4.574a3.81 3.81 0 0 1-2.418-1.13 3.848 3.848 0 0 1-2.424 1.161l-.4-.574c.6-.073 2.061-.478 2.4-1.136H85.04V.48H90v.665h-2.059a3.511 3.511 0 0 0 2.394 1.118zm-5.554 3.343v-.593h5.464v.592zm2.75 1.97c-1.257 0-2.424-.224-2.424-.889s1.2-.882 2.424-.882 2.412.218 2.412.882-1.3.889-2.412.889zM85.958 4.7v-.58h3.071v.58zm1.565 1.68c-.689 0-1.523.006-1.523.314 0 .29.834.3 1.523.3.623 0 1.511 0 1.511-.3s-.863-.309-1.51-.309z" transform="translate(-33.331 -.19)" style="fill:#004b9d"/>
        <path data-name="패스 65" d="M96.37 4.418v-.7h6.492v.7zm3.24-1.3c-1.59 0-2.472-.641-2.472-1.541S98.014 0 99.61 0s2.472.677 2.472 1.578-.852 1.541-2.472 1.541zM97.2 7.1V5.053h.731v1.36h4.279V7.1zM99.616.641c-1.015 0-1.686.393-1.686.925s.707.895 1.68.895 1.7-.338 1.7-.876-.677-.943-1.692-.943z" transform="translate(-38.122)" style="fill:#004b9d"/>
        <path data-name="패스 66" d="M112.76 4.418v-.7h6.492v.7zm3.24-1.3c-1.584 0-2.472-.641-2.472-1.541S114.4 0 116 0s2.472.677 2.472 1.578-.858 1.541-2.472 1.541zM113.594 7.1V5.053h.737v1.36h4.279V7.1zm2.412-6.459c-1.015 0-1.686.393-1.686.925s.713.895 1.68.895 1.7-.338 1.7-.876-.677-.943-1.692-.943z" transform="translate(-44.605)" style="fill:#004b9d"/>
        <path data-name="패스 67" d="M124.64 1.839V1.21h3.3v.629zm1.638 2.629c-.895 0-1.481-.478-1.481-1.161s.586-1.124 1.487-1.124 1.487.453 1.487 1.136-.58 1.149-1.493 1.149zM125.42.781V.153h1.711v.628h-1.711zm2.605 6.649c-1.626 0-2.514-.58-2.514-1.36s.907-1.306 2.527-1.306 2.508.556 2.508 1.336-.889 1.336-2.52 1.336zm-1.741-4.648c-.508 0-.762.206-.762.532s.254.55.762.55.762-.212.762-.55-.246-.532-.762-.532zm1.747 2.605c-1.015 0-1.717.23-1.717.689s.7.707 1.717.707 1.686-.26 1.686-.7c0-.465-.671-.7-1.686-.7zm1.831-.8V2.625h-.762v1.807h-.689V.2h.689v1.68h.762V.08h.689v4.509h-.689z" transform="translate(-49.304 -.032)" style="fill:#004b9d"/>
    </g>
    <g data-name="그룹 22">
        <path data-name="패스 68" d="M7.26 4.706a3.344 3.344 0 0 0-1.692 1.946L.176 22.863A3.364 3.364 0 0 0 2.3 27.124l17.68 5.936a3.374 3.374 0 0 0 4.273-2.134l5.4-16.2a3.386 3.386 0 0 0-2.14-4.267L9.835 4.518a3.371 3.371 0 0 0-2.575.187" transform="translate(-.002 -1.719)" style="fill:#fff"/>
        <path data-name="패스 69" d="M16.642 21.037a9.275 9.275 0 0 1-3.542 2.472l-.8.308V16.31l.792.308a9.279 9.279 0 0 1 3.56 2.466A8.13 8.13 0 0 0 12.707 7.25l-2.551-.85a2.19 2.19 0 0 0-2.762 1.4L1.978 24.011A2.219 2.219 0 0 0 3.4 26.8l12.276 4.1a8.131 8.131 0 0 0 .967-9.858m-7.1 3.246H8.325v-8.42H9.54z" transform="translate(-.741 -2.487)" style="fill:#0092d8"/>
        <path data-name="패스 70" d="M23.512 27.78a8.117 8.117 0 0 0-2.472-1.97v3.959a8.083 8.083 0 0 0 2.472-1.989" transform="translate(-8.324 -10.209)" style="fill:#e43d30"/>
        <path data-name="패스 71" d="M37.507 13.786 26.24 10.02a9.279 9.279 0 0 1 .816 11.521 9.281 9.281 0 0 1-.538 11.236l4.231 1.414a2.172 2.172 0 0 0 2.756-1.4l5.416-16.217a2.219 2.219 0 0 0-1.42-2.786m-2.986 11.95H33l-3.131-4.207 3.173-4.207h1.535l-3.187 4.217 3.125 4.2z" transform="translate(-10.381 -3.963)" style="fill:#004b9d"/>
    </g>
    <g data-name="그룹 23">
        <path data-name="사각형 14" transform="translate(36.652 10.711)" style="fill:#004b9d" d="M0 0h2.968v17.728H0z"/>
        <path data-name="패스 72" d="M72.34 17.71v17.722h5.4c4.588-.006 6.758-1.626 6.764-4.866a4.141 4.141 0 0 0-3.058-4.146l-.175-.054.169-.073a3.926 3.926 0 0 0 2.623-3.947c0-3.028-2.067-4.63-6.256-4.636H72.34zm4.89 9.89c2.116 0 4.159.338 4.159 2.744a2.188 2.188 0 0 1-.943 1.977 5.706 5.706 0 0 1-2.974.586h-2.158V27.6h1.922m.973-7.356c.852 0 2.889.29 2.9 2.351a2.051 2.051 0 0 1-1.2 2.1 7.653 7.653 0 0 1-2.907.375H75.32v-4.827h2.9" transform="translate(-28.616 -7.005)" style="fill:#004b9d"/>
    </g>
    <path data-name="패스 73" d="M111.222 17.71c-.937.979-7.973 8.408-7.973 8.408s7.634 8.281 8.6 9.314h-4.14c-.387-.441-6.933-7.985-6.933-7.985v7.991H97.81V17.716h2.968v7.169s6.244-6.776 6.613-7.169h3.826z" transform="translate(-38.691 -7.005)" style="fill:#004b9d"/>
    <path data-name="패스 74" d="M155.6 27.821v1.819h-7.211v-1.813h-2.359v7.519h11.962v-7.519H155.6zm0 5.682h-7.211v-2.152h7.211zm-4.684-7.912A4.342 4.342 0 0 0 152.564 23h3.046v3.85h2.369v-9.207h-2.369v3.651h-3.022a4.1 4.1 0 0 0-1.6-2.7 5.28 5.28 0 0 0-6.619.224 4.273 4.273 0 0 0 0 6.48 5.265 5.265 0 0 0 6.54.3zm-4.92-1.523a2.9 2.9 0 0 1-.707-1.989 2.779 2.779 0 0 1 .725-1.964 2.348 2.348 0 0 1 1.8-.78 2.253 2.253 0 0 1 1.813.78 2.908 2.908 0 0 1 .665 1.964 2.967 2.967 0 0 1-.683 1.989 2.293 2.293 0 0 1-1.837.81 2.27 2.27 0 0 1-1.771-.81zm-7.743-6.413v17.722h2.375V17.655h-2.375zm-11.932 2.176h6.2v1.354a9.205 9.205 0 0 1-7.084 8.77l-.1.024 1.209 1.493.042-.012c4.557-1.336 8.329-5.579 8.329-10.245v-3.1h-8.6v1.723z" transform="translate(-49.581 -6.938)" style="fill:#004b9d"/>
    <path data-name="패스 75" d="M189.434 37.47h-2.394v5.724h11.95v-1.711h-9.556z" transform="translate(-73.988 -14.822)" style="fill:#004b9d"/>
    <path data-name="패스 76" d="M196.684 18.026a7.5 7.5 0 0 0-7.936 0 3.65 3.65 0 0 0-1.668 3.174 3.6 3.6 0 0 0 1.668 3.137 7.565 7.565 0 0 0 7.936 0 3.59 3.59 0 0 0 1.668-3.137 3.658 3.658 0 0 0-1.668-3.174zm-1.656 5.029a3.523 3.523 0 0 1-2.309.731 3.483 3.483 0 0 1-2.291-.731 2.293 2.293 0 0 1-.895-1.856 2.428 2.428 0 0 1 .895-1.9 3.353 3.353 0 0 1 2.291-.78 3.415 3.415 0 0 1 2.3.78 2.383 2.383 0 0 1 .895 1.9 2.262 2.262 0 0 1-.889 1.856z" transform="translate(-74.003 -6.681)" style="fill:#004b9d"/>
    <path data-name="사각형 15" transform="translate(110.786 19.674)" style="fill:#004b9d" d="M0 0h15.776v1.856H0z"/>
    <path data-name="패스 77" d="M226.709 36.953a7.338 7.338 0 0 0-3.808-.943 7.25 7.25 0 0 0-3.808.943 2.9 2.9 0 0 0 0 5.174 7.4 7.4 0 0 0 3.808.919 7.5 7.5 0 0 0 3.808-.919 2.876 2.876 0 0 0 1.572-2.575 2.911 2.911 0 0 0-1.572-2.599zm-1.572 3.959a4.88 4.88 0 0 1-4.455 0 1.584 1.584 0 0 1-.87-1.366 1.647 1.647 0 0 1 .87-1.4 3.929 3.929 0 0 1 2.218-.574 4.042 4.042 0 0 1 2.236.574 1.647 1.647 0 0 1 .87 1.4 1.572 1.572 0 0 1-.868 1.366z" transform="translate(-86.04 -14.244)" style="fill:#004b9d"/>
    <path data-name="사각형 16" transform="translate(128.756 10.952)" style="fill:#004b9d" d="M0 0h5.361v1.59H0z"/>
    <path data-name="패스 78" d="M230.032 17.75v4.086H228.7V17.75h-2.27v10.009h2.27v-4.327h1.336v5.017h2.273V17.75z" transform="translate(-89.569 -7.021)" style="fill:#004b9d"/>
    <path data-name="패스 79" d="M219.7 21.7h-8.24v1.578h1.735a3.413 3.413 0 0 0-1.662 2.847 4.1 4.1 0 0 0 8.124 0 3.405 3.405 0 0 0-1.662-2.847h1.7zm-4.11 6.546a2.131 2.131 0 1 1 1.934-2.122 2.04 2.04 0 0 1-1.936 2.122z" transform="translate(-83.647 -8.584)" style="fill:#004b9d"/>
</svg>
