<svg xmlns="http://www.w3.org/2000/svg" width="146.726" height="42.902" viewBox="0 0 146.726 42.902">
    <defs>
        <clipPath id="2rc6d4rzra">
            <path data-name="사각형 1536" style="fill:none" d="M0 0h146.726v42.902H0z"/>
        </clipPath>
    </defs>
    <g data-name="그룹 750" style="clip-path:url(#2rc6d4rzra)">
        <path data-name="패스 473" d="M22.156 25.546c-.615-5.573 5.232-10.049 13.061-9.988s14.665 4.631 15.278 10.2-5.229 10.05-13.06 9.991-14.666-4.623-15.279-10.203m29.794 1.732c-.705-6.913-8.583-12.582-17.591-12.657S18.625 20.1 19.331 27.012 27.918 39.6 36.922 39.668s15.735-5.474 15.028-12.39" transform="translate(-4.69 -3.556)" style="fill:#fbb584"/>
        <path data-name="패스 474" d="M37.939 41.618c-4.438 4.632-11.555 5.016-15.9.856s-4.276-11.292.163-15.929 11.556-5.013 15.9-.856 4.273 11.292-.167 15.929M21.506 26.4c-5.156 5.393-5.241 13.679-.192 18.515s13.33 4.387 18.485-1 5.24-13.673.188-18.512-13.323-4.39-18.481 1" transform="translate(-4.277 -5.363)" style="fill:#f89b6c"/>
        <path data-name="패스 475" d="M17.7 3.693c9.226-3.461 18.35.042 20.376 7.811s-3.8 16.879-13.032 20.333S6.7 31.8 4.665 24.023 8.473 7.149 17.7 3.693M9.131 6.664C-.442 14.242-2.878 25.222 3.688 31.19s19.648 4.66 29.221-2.919S44.915 9.708 38.35 3.744 18.7-.915 9.131 6.664" style="fill:#f37321"/>
        <path data-name="패스 476" d="M64.462 17.262H53.709v-1.72h10.753zm-5.377 7.555a5.034 5.034 0 0 1-3.318-1.039 3.034 3.034 0 0 1-1.279-2.459 3.09 3.09 0 0 1 1.279-2.457 5.91 5.91 0 0 1 6.636 0 3.149 3.149 0 0 1 1.279 2.459 3.09 3.09 0 0 1-1.279 2.459 5.072 5.072 0 0 1-3.318 1.039m.82 3.958h9.294v1.839h-9.873c-2.139 0-3.2-.98-3.2-2.978v-1.921h2.4v1.639c0 .959.459 1.419 1.379 1.419m-3.578-15.591h5.517v1.739h-5.517zm2.758 9.954a2.538 2.538 0 0 0 1.619-.519 1.582 1.582 0 0 0 .659-1.3 1.6 1.6 0 0 0-.659-1.279 2.654 2.654 0 0 0-1.619-.52 2.516 2.516 0 0 0-1.6.52 1.568 1.568 0 0 0-.679 1.279 1.551 1.551 0 0 0 .679 1.3 2.41 2.41 0 0 0 1.6.519m10.035-5.256h2.478v1.88h-2.479v6.056h-2.383V13.484h2.379z"/>
        <path data-name="패스 477" d="M77.84 24.717a4.432 4.432 0 0 1-2.176-.955 3.012 3.012 0 0 1-1.24-2.438 3.09 3.09 0 0 1 1.28-2.459 5.91 5.91 0 0 1 6.636 0 3.148 3.148 0 0 1 1.279 2.459 3.067 3.067 0 0 1-1.243 2.438 4.767 4.767 0 0 1-2.139.96v1.818h2.658c2.4 0 3.6-.919 3.6-2.778V13.483h2.379v5.757h2.478v1.9h-2.478v9.515h-2.38v-3.22a4.7 4.7 0 0 1-3.2.959H73.222v-1.859h4.618zm6.516-7.456H73.602v-1.72h10.753zm-8.092-4.077h5.517v1.739h-5.517zm2.758 9.954a2.538 2.538 0 0 0 1.619-.519 1.584 1.584 0 0 0 .659-1.3 1.6 1.6 0 0 0-.659-1.28 2.658 2.658 0 0 0-1.619-.519 2.517 2.517 0 0 0-1.6.519 1.571 1.571 0 0 0-.68 1.28 1.554 1.554 0 0 0 .68 1.3 2.407 2.407 0 0 0 1.6.519"/>
        <path data-name="패스 478" d="M102.954 18.804v1.879h7.558v1.782H92.98v-1.782h7.532v-1.879zm0-5.216a3.558 3.558 0 0 0 2.018 3.038 8.334 8.334 0 0 0 4.318 1.239v1.739a11.822 11.822 0 0 1-5.638-1.439 5.944 5.944 0 0 1-1.9-1.439 6.535 6.535 0 0 1-1.92 1.439 11.815 11.815 0 0 1-5.636 1.439v-1.739a8.331 8.331 0 0 0 4.317-1.239 3.6 3.6 0 0 0 2.019-3.038v-.1h2.419zm-7.875 14.251V26.18h10.933v-.94H95.078v-1.718h12.813a.452.452 0 0 1 .5.5v3.858H97.457v.18c0 .559.36.82 1.079.82h9.894v1.739H98.256c-2.118 0-3.178-.92-3.178-2.779"/>
        <path data-name="패스 479" d="M129.263 25.88h-7.555v4.777h-2.439V25.88h-7.535v-1.9h17.529zm-15.671-6.136v-2.7h11.213v-1.543h-11.212v-1.814h12.691a.8.8 0 0 1 .9.9v4.257h-11.213v.757c0 .639.36.94 1.079.94h10.314v1.818H116.67c-2.058 0-3.078-.86-3.078-2.618"/>
        <path data-name="패스 480" d="M136.889 14.826a8.411 8.411 0 0 0 1.659 5.617 6.232 6.232 0 0 0 2.8 2.039v1.859a7.709 7.709 0 0 1-4.277-2.339 7.189 7.189 0 0 1-1.359-1.818 8.331 8.331 0 0 1-1.359 1.818 7.775 7.775 0 0 1-4.278 2.339v-1.859a6.334 6.334 0 0 0 2.8-2.039 8.518 8.518 0 0 0 1.659-5.617v-1.079h2.355zm.54 13.932h9.294v1.859h-9.874c-2.139 0-3.2-.98-3.2-2.979v-2.657h2.4v2.359c0 .959.459 1.419 1.379 1.419m6.716-15.271h2.378V25.82h-2.378v-4.955h-4.277v-1.821h4.277v-1.679h-4.277v-1.819h4.277z"/>
    </g>
</svg>
