<svg xmlns="http://www.w3.org/2000/svg" width="135.263" height="37.129" viewBox="0 0 135.263 37.129">
    <g data-name="그룹 27">
        <path data-name="패스 89" d="M170.963 41.184v1.13H155.44v-1.13h6.606v-1.553h-3.656a1.169 1.169 0 0 1-1.184-1.167v-2.7h9.466V34.19h-9.466v-1.13h11.71v3.85h-9.429v1.076c0 .353.124.477.44.477h9.2v1.167h-4.786v1.553h6.622zm-.777 6.571-.655.989a11.294 11.294 0 0 1-6.339-3.179 11.143 11.143 0 0 1-6.341 3.179l-.653-.989c1.324-.194 5-1.855 5.757-4.4h2.472c.758 2.543 4.433 4.222 5.757 4.4z" transform="translate(-111.688 -23.91)" style="fill:#e60012"/>
        <path data-name="패스 90" d="M245.538 41.751c.882 0 1.378.017 1.766-.318v-3.516h-3.231v-1.165h3.227V31.77h2.243v15.789H247.3v-4.91a3.874 3.874 0 0 1-1.766.283h-4.61a1.471 1.471 0 0 1-1.518-1.5V32.39h6.428v1.184h-4.164v7.593c0 .353.124.585.547.585zm5.581-9.979h2.243v15.787h-2.242V31.77z" transform="translate(-178.313 -22.887)" style="fill:#e60012"/>
        <path data-name="패스 91" d="M332.86 42.946v1.132h-6.569v5.244h-2.386v-5.244H317.3v-1.132zm-3.567-5.829a6.255 6.255 0 0 1-.442 2.384h2.449v1.165h-12.7V39.5h2.189v-4.345h-2V33.99h12.321v1.165h-1.82v1.96zm-2.349-1.96h-3.8V39.5h3.5a11.374 11.374 0 0 0 .3-2.384v-1.96z" transform="translate(-240.115 -24.648)" style="fill:#e60012"/>
        <path data-name="패스 92" d="M413.895 45.72v1.165H398.37V45.72zm-12.522-3.25a1.1 1.1 0 0 1-1.167-1.184V34.77h11.586v1.165H402.5v4.856c0 .3.035.512.423.512H412v1.165h-10.627z" transform="translate(-304.439 -25.267)" style="fill:#e60012"/>
        <path data-name="패스 93" d="M518.51 42.954v1.132h-6.765v5.244h-2.384v-5.244h-6.411v-1.132zm-9.254-7.789h-4.643V34h11.974v1.165h-4.662c.229 1.838 2.9 4.168 5.4 4.875l-.69.989a10 10 0 0 1-6.042-3.691c-1.235 2.03-4.414 3.443-6.04 3.691l-.688-.989c2.667-.83 5.315-3.2 5.385-4.875z" transform="translate(-387.417 -24.656)" style="fill:#e60012"/>
        <path data-name="패스 94" d="M486.695 46.939a34.5 34.5 0 0 1-1.772-3.295 10.671 10.671 0 0 1-.952-4.668 10.788 10.788 0 0 1 .952-4.676 32.875 32.875 0 0 1 1.772-3.319h1.386a17.383 17.383 0 0 0-1.741 4.2 15.607 15.607 0 0 0-.5 3.8 15.388 15.388 0 0 0 .5 3.774 17.236 17.236 0 0 0 1.741 4.187h-1.386z" transform="translate(-372.358 -22.26)" style="fill:#e60012"/>
        <path data-name="패스 95" d="M581.744 34.325a10.888 10.888 0 0 1 .944 4.675 10.8 10.8 0 0 1-.944 4.668 31.273 31.273 0 0 1-1.778 3.295h-1.386a18.226 18.226 0 0 0 1.741-4.187 14.167 14.167 0 0 0-.008-7.581 18.371 18.371 0 0 0-1.733-4.187h1.386a29.77 29.77 0 0 1 1.778 3.319z" transform="translate(-447.426 -22.284)" style="fill:#e60012"/>
    </g>
    <path data-name="패스 96" d="M13.942 27.887a1.069 1.069 0 0 1 .588 2.055 1.069 1.069 0 1 1-.588-2.055zm3.442-21.054c2.781-.555 4.515 1.292 5.213 3.3 1.45 4.167.203 10.367-1.883 14.247-.259.476-.484.94-1.255.873a1 1 0 0 1-.819-1.292c.194-.808 2.722-3.656 2.505-10.429-.076-2.378-.858-5.4-3.727-4.633-2.035.546-2.238 4.287-2.108 6.525a30.345 30.345 0 0 0 1.278 7.285c.631 2 1.658 4.093 3.592 5.055 2.1 1.047 4.588-1.807 5.387-2.944.3-.436.619-1.058 1.075-1.134a.99.99 0 0 1 1.275.9c.045.752-1.306 2.232-1.666 2.637-3.549 3.991-7.766 3.758-10.465-1.182-1.886-3.463-3.116-10.767-2.326-14.533a7.24 7.24 0 0 1 1.24-3.043 3.8 3.8 0 0 1 2.68-1.63zm19.65 12.821a10.758 10.758 0 0 0-.4-4.183c-1.033-3.628-3.642-5.3-6.054-7.893-1.509-1.52-3.076-3.2-4.644-4.633A10.617 10.617 0 0 0 19.56.063a10.858 10.858 0 0 0-7.268 1.948 59.668 59.668 0 0 0-5.784 5.573C3.479 10.661.639 12.668.076 17.363a10.818 10.818 0 0 0 1.852 7.4c1.649 2.4 6.612 7.04 9.139 9.407a10.716 10.716 0 0 0 6.37 2.927 10.944 10.944 0 0 0 7.3-1.863 51.934 51.934 0 0 0 4.748-4.534c.189-.194.355-.352.6-.6.585-.574 1.162-1.151 1.74-1.731 2.7-2.708 4.639-4.186 5.21-8.714z" transform="translate(-.001 -.002)" style="fill:#e10314;fill-rule:evenodd"/>
</svg>
