<svg xmlns="http://www.w3.org/2000/svg" width="152.185" height="38.76" viewBox="0 0 152.185 38.76">
    <g data-name="그룹 25">
        <path data-name="패스 80" d="M27.387 35.468a11.342 11.342 0 0 1-15.976 0L3.3 27.362a11.308 11.308 0 0 1 0-15.96l8.11-8.114a11.342 11.342 0 0 1 15.976 0l8.114 8.106a11.308 11.308 0 0 1 0 15.96l-8.113 8.106z" transform="translate(0 .001)" style="fill:#e60012"/>
        <g data-name="그룹 24">
            <path data-name="패스 81" d="M17.646 37.892a1.194 1.194 0 0 1-1.2-1.148A1.2 1.2 0 0 1 17.6 35.5a1.2 1.2 0 1 1 .1 2.393h-.049z" transform="translate(-3.061 -6.607)" style="fill:#fff"/>
            <path data-name="패스 82" d="M22.108 10.757a2.165 2.165 0 0 0-1.611.627c-.92.912-1.4 2.8-1.359 5.315.049 3.093.789 9.172 3.223 12.3a5.618 5.618 0 0 0 1.261 1.2 2.8 2.8 0 0 0 1.66.562 3.753 3.753 0 0 0 .651-.065c1.4-.334 3.15-1.888 4.452-3.955a1.061 1.061 0 0 1 .912-.5 1.076 1.076 0 0 1 1.05.838 1.064 1.064 0 0 1-.138.814C30.565 30.5 28.391 32.34 26.4 32.8a.174.174 0 0 0-.049.008 6.111 6.111 0 0 1-1.066.1 4.93 4.93 0 0 1-2.84-.92 7.457 7.457 0 0 1-1.774-1.677c-3.435-4.4-3.662-12.656-3.679-13.583-.041-2.2.277-5.168 1.994-6.877A4.279 4.279 0 0 1 22.1 8.6h.2a4.284 4.284 0 0 1 3.125 1.253c1.717 1.7 2.035 4.68 1.994 6.877a22.183 22.183 0 0 1-2.832 10.694 1.075 1.075 0 0 1-.928.521 1.035 1.035 0 0 1-.553-.155 1.082 1.082 0 0 1-.374-1.473 18.664 18.664 0 0 0 2.531-9.628c.041-2.515-.439-4.395-1.359-5.315a2.165 2.165 0 0 0-1.611-.627h-.187z" transform="translate(-3.161 -1.6)" style="fill:#fff"/>
        </g>
    </g>
    <g data-name="그룹 26">
        <path data-name="패스 83" d="M73.621 22.057v1.188H57.27v-1.188h6.959v-1.635h-3.85a1.237 1.237 0 0 1-.871-.342 1.127 1.127 0 0 1-.374-.879V16.36H69.1v-1.652h-9.97V13.52h12.342v4.053h-9.937V18.7a.548.548 0 0 0 .106.391.479.479 0 0 0 .366.114H71.7v1.229h-5.038v1.636h6.975zm-5.795 4.118a9.45 9.45 0 0 0 1.717 1.425 9.811 9.811 0 0 0 1.831.944 7.37 7.37 0 0 0 1.424.431l-.692 1.042a10.286 10.286 0 0 1-1.359-.277 11.37 11.37 0 0 1-1.766-.635A13.623 13.623 0 0 1 67.11 28.1a8.316 8.316 0 0 1-1.685-1.424 8.779 8.779 0 0 1-1.677 1.424 12.666 12.666 0 0 1-1.864 1.009 13.773 13.773 0 0 1-1.766.635 9.052 9.052 0 0 1-1.375.277l-.692-1.042a6.829 6.829 0 0 0 1.424-.431 9.927 9.927 0 0 0 1.831-.96 9.507 9.507 0 0 0 1.717-1.424 4.46 4.46 0 0 0 1.091-1.823h2.6a4.451 4.451 0 0 0 1.091 1.831z" transform="translate(-10.66 -2.515)" style="fill:#e60012"/>
        <path data-name="패스 84" d="M86.7 23.657a12.9 12.9 0 0 0 1.123-.041 1.278 1.278 0 0 0 .732-.3V19.62h-3.4v-1.229h3.4V13.15h2.36v16.619h-2.36V24.6a2.139 2.139 0 0 1-.708.22 7.43 7.43 0 0 1-1.156.073h-4.858a1.532 1.532 0 0 1-1.164-.464 1.568 1.568 0 0 1-.439-1.115v-9.505H87v1.245h-4.385v7.992a.748.748 0 0 0 .122.448.529.529 0 0 0 .456.171h3.5zm5.876-10.5h2.36v16.62h-2.36z" transform="translate(-14.934 -2.446)" style="fill:#e60012"/>
        <path data-name="패스 85" d="M101.7 13.77h9.864v1.2h-3.724v.09a5.865 5.865 0 0 0 .334 2.018 6.1 6.1 0 0 0 .9 1.644 6.531 6.531 0 0 0 1.327 1.31 12.254 12.254 0 0 0 1.62 1.009l-.822.985a9.315 9.315 0 0 1-1.058-.415 8.974 8.974 0 0 1-1.229-.684 9.632 9.632 0 0 1-1.237-.969 7.055 7.055 0 0 1-1.091-1.253A8.346 8.346 0 0 1 105.5 20a11.662 11.662 0 0 1-1.229 1.034 7.949 7.949 0 0 1-1.229.741 7.764 7.764 0 0 1-1.091.448l-.8-.969a7.905 7.905 0 0 0 1.522-.96 6.994 6.994 0 0 0 2.246-3.109 5.91 5.91 0 0 0 .35-2.075v-.146h-3.589v-1.2zm9.359 9.148a6 6 0 0 1 1.831.269 4.536 4.536 0 0 1 1.473.773 3.638 3.638 0 0 1 .977 1.2 3.33 3.33 0 0 1 .35 1.53 3.432 3.432 0 0 1-.35 1.554 3.638 3.638 0 0 1-.977 1.2 4.454 4.454 0 0 1-1.473.773 6.377 6.377 0 0 1-3.662 0 4.536 4.536 0 0 1-1.473-.773 3.638 3.638 0 0 1-.977-1.2 3.384 3.384 0 0 1-.35-1.554 3.283 3.283 0 0 1 .35-1.53 3.638 3.638 0 0 1 .977-1.2 4.454 4.454 0 0 1 1.473-.773 6 6 0 0 1 1.831-.269zm0 1.245a2.1 2.1 0 0 0-.952.212 2.005 2.005 0 0 0-.676.57 2.506 2.506 0 0 0-.407.806 3.3 3.3 0 0 0-.138.936 3.513 3.513 0 0 0 .138.96 2.506 2.506 0 0 0 .407.806 1.969 1.969 0 0 0 .676.562 2.054 2.054 0 0 0 .952.2 2.147 2.147 0 0 0 .968-.2 1.969 1.969 0 0 0 .676-.562 2.489 2.489 0 0 0 .4-.806 3.38 3.38 0 0 0 .13-.96 3.425 3.425 0 0 0-.138-.96 2.425 2.425 0 0 0-.407-.806 1.968 1.968 0 0 0-.676-.562 2.077 2.077 0 0 0-.952-.2zm5.38-11V22.8H114v-4.513h-3.426v-1.245H114V13.16h2.433z" transform="translate(-18.828 -2.448)" style="fill:#e60012"/>
        <path data-name="패스 86" d="M128.122 13.75v2.9h7.439v-2.9h2.36v8.55h-4.7v3.142h6.918v1.229H123.76v-1.226h6.975V22.3h-3.516a1.47 1.47 0 0 1-1.119-.4 1.542 1.542 0 0 1-.383-1.1v-7.05h2.4zm0 6.893a.38.38 0 0 0 .431.431h7.016v-3.2h-7.439v2.767z" transform="translate(-23.036 -2.558)" style="fill:#e60012"/>
        <path data-name="패스 87" d="M160.081 13.5v1.188h-9.807v1.432h9.807v1.2h-9.807v.912a.7.7 0 0 0 .138.448.55.55 0 0 0 .456.171h9.465v1.188h-5.095v1.522h7.072v1.188h-16.35v-1.184h6.771v-1.522h-3.646a1.134 1.134 0 0 1-.871-.334 1.168 1.168 0 0 1-.317-.838V13.5h12.184zm-6.1 10.222a7.972 7.972 0 0 1 1.758.2 5.117 5.117 0 0 1 1.546.61 3.333 3.333 0 0 1 1.091 1.066 3.114 3.114 0 0 1-.008 3.093 3.413 3.413 0 0 1-1.091 1.066 4.986 4.986 0 0 1-1.538.61 7.972 7.972 0 0 1-1.758.2 7.52 7.52 0 0 1-1.758-.2 5.006 5.006 0 0 1-1.538-.627 3.563 3.563 0 0 1-1.091-1.058 2.74 2.74 0 0 1-.415-1.53 2.9 2.9 0 0 1 .407-1.546 3.333 3.333 0 0 1 1.091-1.066 5.118 5.118 0 0 1 1.546-.61 7.972 7.972 0 0 1 1.758-.2zm0 1.1a2.461 2.461 0 0 0-.96.179 2.391 2.391 0 0 0-.765.48 2.127 2.127 0 0 0-.513.732 2.393 2.393 0 0 0 0 1.856 2.217 2.217 0 0 0 1.27 1.213 2.7 2.7 0 0 0 .969.179 2.531 2.531 0 0 0 .968-.179 2.217 2.217 0 0 0 1.27-1.213 2.393 2.393 0 0 0 0-1.856 2.127 2.127 0 0 0-.513-.732 2.391 2.391 0 0 0-.765-.48 2.619 2.619 0 0 0-.965-.18z" transform="translate(-27.168 -2.511)" style="fill:#e60012"/>
        <path data-name="패스 88" d="M174.476 15.681a5.865 5.865 0 0 0 .334 2.018 6.119 6.119 0 0 0 .912 1.644 6.614 6.614 0 0 0 1.343 1.31 11.746 11.746 0 0 0 1.62 1.009l-.822.985a9.315 9.315 0 0 1-1.058-.415 8.452 8.452 0 0 1-1.221-.684 10.838 10.838 0 0 1-1.229-.969 7.055 7.055 0 0 1-1.091-1.253 8.345 8.345 0 0 1-1.091 1.294 10.956 10.956 0 0 1-1.237 1.034 8.412 8.412 0 0 1-1.237.741 7.765 7.765 0 0 1-1.091.448l-.8-.969a7.905 7.905 0 0 0 1.522-.96 6.994 6.994 0 0 0 2.246-3.109 5.91 5.91 0 0 0 .35-2.075v-2.157h2.531v2.1zm-.9 12.249a1.2 1.2 0 0 0 .073.431c.049.122.228.187.537.187h9.229v1.229h-11.007a1.447 1.447 0 0 1-.716-.146.9.9 0 0 1-.366-.374 1.352 1.352 0 0 1-.13-.5c-.008-.179-.016-.35-.016-.513v-4.009h2.4zm9.392-14.78v11.744h-2.458V13.158h2.458z" transform="translate(-31.235 -2.446)" style="fill:#e60012"/>
    </g>
</svg>
