<svg xmlns="http://www.w3.org/2000/svg" width="107.993" height="36.434" viewBox="0 0 107.993 36.434">
    <g data-name="그룹 19">
        <g data-name="그룹 18">
            <path data-name="패스 54" d="M225.76 18.218a18.219 18.219 0 1 1 18.22 18.216 18.219 18.219 0 0 1-18.22-18.216z" transform="translate(-174.136)" style="fill:#005083"/>
            <path data-name="패스 55" d="M401.65 52.434a8.074 8.074 0 1 1 8.072 8.072 8.074 8.074 0 0 1-8.072-8.072z" transform="translate(-309.806 -34.216)" style="fill:#005083"/>
            <path data-name="패스 56" d="M314.49 52.562a8.074 8.074 0 1 1 8.072 8.072 8.071 8.071 0 0 1-8.072-8.072z" transform="translate(-242.576 -34.317)" style="fill:#f39800"/>
            <path data-name="패스 57" d="M270.24 52.632a8.073 8.073 0 1 1 8.074 8.072 8.074 8.074 0 0 1-8.074-8.072z" transform="translate(-208.445 -34.371)" style="fill:#aacf52"/>
        </g>
        <path data-name="패스 58" d="M314.48 58.631a8.053 8.053 0 0 0 3.025 6.3 8.065 8.065 0 0 0-.021-12.577 8.056 8.056 0 0 0-3.004 6.277z" transform="translate(-242.569 -40.379)" style="fill:#fff"/>
    </g>
    <g data-name="그룹 20">
        <path data-name="패스 59" d="M12.314 46.533V42.25H0v18.888h12.314v-4.285h-7.4v-3.208h6.366v-3.91H4.914v-3.2z" transform="translate(0 -32.589)" style="fill-rule:evenodd;fill:#005083"/>
        <path data-name="패스 60" d="M144.6 59.209a23.477 23.477 0 0 0 6.33.386c2.728-.231 6.158-1.845 6.217-6.135a4.9 4.9 0 0 0-3.229-5.058l-4.034-1.441a1.224 1.224 0 0 1-.807-.926c-.025-.7.542-1.363 1.816-1.518a16.244 16.244 0 0 1 5.124.551l-.027-4.4a21.74 21.74 0 0 0-5.047-.752 6.267 6.267 0 0 0-6.716 6.073 5.008 5.008 0 0 0 3.213 5.147l3.718 1.347c.924.4.954.791.979 1.1.043.569-.51 1.006-1.242 1.29a12.484 12.484 0 0 1-6.277-.338l-.018 4.672z" transform="translate(-111.24 -30.788)" style="fill-rule:evenodd;fill:#005083"/>
        <path data-name="패스 61" d="M69.992 42.26v18.893h7.356c6.073 0 7.073-3.709 7.073-5.2a4.227 4.227 0 0 0-2.451-4.237 4.344 4.344 0 0 0 2.193-4.1c0-1.777-1.125-5.353-6.862-5.353H69.99zm4.919 11.2c2.179-.375 4.557.215 4.557 1.756s-2.378 2.129-4.557 1.754v-3.508zm0-6.967c2.179-.375 4.557.213 4.557 1.754S77.09 50.375 74.911 50z" transform="translate(-53.986 -32.597)" style="fill-rule:evenodd;fill:#005083"/>
    </g>
</svg>
