<svg xmlns="http://www.w3.org/2000/svg" width="165" height="27.358" viewBox="0 0 165 27.358">
    <defs>
        <clipPath id="4sb942hasa">
            <path data-name="사각형 1538" style="fill:none" d="M0 0h165v27.358H0z"/>
        </clipPath>
    </defs>
    <g data-name="그룹 751" style="clip-path:url(#4sb942hasa)">
        <path data-name="패스 481" d="M40.349.061c.348.464 1.06 1.419 1.08 1.433a1.6 1.6 0 0 0 .177.264 16.971 16.971 0 0 1 1.335 2.569l.171.539s.043.182.069.391a5.083 5.083 0 0 1-.052 1.8 9.372 9.372 0 0 1-1.373 2.962c-.51.7-1.636 2.042-1.636 2.042-.663-.793-1.376-1.558-2.067-2.322-.388-.713-.785-1.422-1.135-2.169a7.968 7.968 0 0 1-.44-2.537c-.011-.009.026-.362.04-.51a3.289 3.289 0 0 1 .3-.881 2.368 2.368 0 0 1 .33-.55s.321-.457.414-.57a26.405 26.405 0 0 1 2.7-2.514c.044-.035.067.034.09.052" transform="translate(-25.253)" style="fill:#e60000"/>
        <path data-name="패스 482" d="M12.326 15.464c.243.1.5.139.744.229a11.924 11.924 0 0 1 1.989.435 12.534 12.534 0 0 1 1.2.544 9.522 9.522 0 0 1 2.465 2.262 7.867 7.867 0 0 1 1.364 2.954c.058.339.168.7.191 1.031a13.7 13.7 0 0 1-3.374.545 8.447 8.447 0 0 1-2.577-.9 8.342 8.342 0 0 1-1.99-2.024 9.586 9.586 0 0 1-1.268-3.97c-.023-.191-.041-.365-.041-.365s-.064-.573-.1-.86c0-.148.011-.229.011-.229s.226.049.394.075c.255.081.875.261.993.278" transform="translate(-7.565 -10.462)" style="fill:#e60000"/>
        <path data-name="패스 483" d="M60.891 19.156a17.81 17.81 0 0 1 1.8.371c.113.018.171.052.275.07q.856.286 1.706.593a4.6 4.6 0 0 1-.7 2.2c-.014.023-.034.052-.06.09a5.664 5.664 0 0 1-1.622 1.625 11.171 11.171 0 0 1-1.833 1.063 7.839 7.839 0 0 1-4.492.889c-.576-.1-1.179-.119-1.752-.246 0 0 .258-1.022.373-1.535a7.285 7.285 0 0 1 .344-.941 13.532 13.532 0 0 1 1.144-2.076 7.581 7.581 0 0 1 2.6-1.961 4.473 4.473 0 0 1 2.221-.145" transform="translate(-37.531 -13.21)" style="fill:#e60000"/>
        <path data-name="패스 484" d="M8.094 48.384a4.957 4.957 0 0 0 1.714-1.356 14.261 14.261 0 0 0 1.4-1.747c.011-.021.405-.625.588-.863.012-.02.029-.032.044-.055a22.945 22.945 0 0 0-2.9-1.063 11.264 11.264 0 0 0-2.5-.5 7.161 7.161 0 0 0-2.178.043A11.461 11.461 0 0 0 0 45.117l.014.046A19.685 19.685 0 0 0 1.5 47.175a2.842 2.842 0 0 0 .336.374l.611.614c.243.125.761.353.761.353a4.778 4.778 0 0 0 1.978.516 8.967 8.967 0 0 0 2.911-.649" transform="translate(0 -29.585)" style="fill:#e60000"/>
        <path data-name="패스 485" d="M62.006 42.89a6.916 6.916 0 0 1 .99.063 9.508 9.508 0 0 1 2.739.805 4.633 4.633 0 0 1 .42.266s.3.252.467.382a7.187 7.187 0 0 1 .7.759c.061.127.246.414.263.446a20.4 20.4 0 0 1 .956 2.079.663.663 0 0 1 .052.133 3.434 3.434 0 0 1-.507.162c-.037.015-.538.162-.738.252-.556.128-1.144.247-1.708.339-.041.009-.82.127-1.182.15-.023 0-.674.053-.8.041a3.214 3.214 0 0 1-.53.017 12.841 12.841 0 0 1-1.213-.067 4.7 4.7 0 0 1-.987-.212c-.052-.017-.886-.353-.918-.364a5.333 5.333 0 0 1-.5-.29 4.011 4.011 0 0 1-.608-.4 5.5 5.5 0 0 1-.86-.861 16.792 16.792 0 0 1-1-1.688 9.386 9.386 0 0 1 2.624-1.488c.365-.159.747-.293 1.126-.423a5.21 5.21 0 0 1 1.225-.107" transform="translate(-39.485 -29.687)" style="fill:#e60000"/>
        <path data-name="패스 486" d="M54.734 58.086a6.265 6.265 0 0 1 1.567 2.85 10.739 10.739 0 0 1 .157 1.144 11.775 11.775 0 0 1 .1 1.26c.006.646-.046 1.3-.046 1.952-.313-.1-.629-.229-.936-.344-.023.011-2.169-.768-2.169-.768a13.091 13.091 0 0 1-2.29-1.3 7.884 7.884 0 0 1-1.329-1.21c-.218-.3-.411-.614-.62-.924a2.062 2.062 0 0 1-.214-.539 4.741 4.741 0 0 1-.168-1.41 3.885 3.885 0 0 1 .02-.654 14.359 14.359 0 0 1 .64-2.847l.055-.25a12.418 12.418 0 0 1 5.23 3.038" transform="translate(-33.773 -38.112)" style="fill:#e60000"/>
        <path data-name="패스 487" d="M28.8 55.143c-1.3.486-2.537 1.071-3.785 1.645-.206.127-.429.287-.64.408-.371.405-1.2 1.152-1.2 1.152a2.965 2.965 0 0 0-.985 1.951 10.5 10.5 0 0 0 .134 2.187 18.831 18.831 0 0 0 .637 2.3c.055.261.133.5.185.753.076-.011.183-.055.27-.064a24.217 24.217 0 0 0 2.919-1.181 6.224 6.224 0 0 0 1.943-1.549 3.937 3.937 0 0 0 .266-.313 5.651 5.651 0 0 0 1.085-3.232s-.006-.351.009-.518c-.035-.413-.139-.834-.182-1.242-.081-.243-.116-.489-.191-.733-.122-.513-.325-1.043-.466-1.567" transform="translate(-15.352 -38.178)" style="fill:#e60000"/>
        <path data-name="패스 488" d="M131.24 20.142a4.08 4.08 0 0 0-1.373 3.183c0 2.4 2.019 3.623 3.97 4.8 1.72 1.043 3.345 2.022 3.345 3.73 0 1.107-1.02 2.279-2.9 2.279a5.548 5.548 0 0 1-3.884-1.784l-.434-.432v2.6l.1.08a7.236 7.236 0 0 0 4.483 1.425 4.371 4.371 0 0 0 4.593-4.442 4.6 4.6 0 0 0-1.413-3.38 12.807 12.807 0 0 0-2.855-1.975c-1.567-.883-3.047-1.717-3.047-3.223 0-1.272 1.158-2.158 2.824-2.158a5.565 5.565 0 0 1 3.408 1.274l.414.316v-2.342l-.122-.075a6.629 6.629 0 0 0-3.5-1.057 5.4 5.4 0 0 0-3.611 1.181" transform="translate(-89.913 -13.128)" style="fill:#4f5556"/>
        <path data-name="패스 489" d="M315.855 20.142a4.077 4.077 0 0 0-1.369 3.183c0 2.4 2.015 3.623 3.97 4.8 1.717 1.043 3.341 2.022 3.341 3.73 0 1.107-1.016 2.279-2.9 2.279a5.547 5.547 0 0 1-3.881-1.784l-.434-.435v2.607l.1.077a7.227 7.227 0 0 0 4.486 1.425 4.371 4.371 0 0 0 4.589-4.442 4.6 4.6 0 0 0-1.412-3.38 12.818 12.818 0 0 0-2.845-1.972c-1.569-.883-3.05-1.717-3.05-3.223 0-1.272 1.161-2.158 2.824-2.158a5.552 5.552 0 0 1 3.408 1.274l.414.316v-2.346l-.122-.075a6.628 6.628 0 0 0-3.5-1.057 5.407 5.407 0 0 0-3.612 1.181" transform="translate(-217.733 -13.128)" style="fill:#4f5556"/>
        <path data-name="패스 490" d="M183.242 19.789v7.364h-8.887v-7.364h-2.074v16.552h2.074v-7.363h8.887v7.364h2.073V19.789z" transform="translate(-119.278 -13.701)" style="fill:#4f5556"/>
        <path data-name="사각형 1537" transform="translate(71.276 6.088)" style="fill:#4f5556" d="M0 0h2.074v16.552H0z"/>
        <path data-name="패스 491" d="M357.377 19.789v16.552h9.3v-1.823h-7.222v-5.529h6.75v-1.83h-6.75v-5.546h7v-1.824z" transform="translate(-247.428 -13.701)" style="fill:#4f5556"/>
        <path data-name="패스 492" d="M506.092 19.789v16.552h9.3v-1.823h-7.222v-5.529h6.75v-1.83h-6.75v-5.546h7v-1.824z" transform="translate(-350.391 -13.701)" style="fill:#4f5556"/>
        <path data-name="패스 493" d="M456.761 19.459h-1.48L448.6 36.113h2.147l1.919-4.978h6.875l2.079 4.981h2.121zm-3.39 9.846 2.594-6.733 2.812 6.733z" transform="translate(-310.584 -13.472)" style="fill:#4f5556"/>
        <path data-name="패스 494" d="M410.293 22.488v-2.172a12.667 12.667 0 0 0-4.8-1.225 8.892 8.892 0 0 0-6.484 2.23 8.575 8.575 0 0 0-2.41 6.246c0 4.619 2.548 8.514 8.183 8.514a10.355 10.355 0 0 0 5.5-1.422l.1-.067v-7.911h-5.302v1.746h3.313v5.014a7.207 7.207 0 0 1-3.672.753c-3.041-.247-5.989-2.019-5.989-6.556 0-4.066 2.4-6.667 6.58-6.667a10.146 10.146 0 0 1 4.981 1.518" transform="translate(-274.585 -13.218)" style="fill:#4f5556"/>
        <path data-name="패스 495" d="m267.455 19.789-.005 12.873-10.057-12.873h-1.978v16.556h1.926V23.1l10.293 13.24h1.743V19.789z" transform="translate(-176.836 -13.701)" style="fill:#4f5556"/>
    </g>
</svg>
